<svg width="196" height="65" viewBox="0 0 196 65" fill="none" xmlns="http://www.w3.org/2000/svg">
<path d="M71.3093 32.2887H57.3453V43.7169H56.0942V20.1166H57.3453V31.1729H71.3093V20.1166H72.5604V43.7169H71.3093V32.2887Z" fill="#0D5C36"/>
<path d="M93.3649 43.7169C92.4407 43.7169 91.9561 43.2436 91.911 42.2969V41.0458H91.7757C91.37 41.9249 90.7276 42.6575 89.8485 43.2436C88.9694 43.8296 87.786 44.1227 86.2983 44.1227C84.5176 44.1227 83.1426 43.6944 82.1733 42.8378C81.2041 41.9813 80.7194 40.7754 80.7194 39.22C80.7194 38.4762 80.8322 37.8 81.0576 37.1914C81.283 36.5828 81.6549 36.0643 82.1733 35.636C82.7143 35.1852 83.4018 34.8471 84.2358 34.6217C85.0924 34.3737 86.1405 34.2498 87.3803 34.2498H91.8772V31.9506C91.8772 30.3277 91.4827 29.133 90.6938 28.3666C89.9049 27.5777 88.7327 27.1832 87.1774 27.1832C84.7655 27.1832 83.0975 28.1975 82.1733 30.2262L81.3281 29.6514C81.8014 28.592 82.5002 27.7467 83.4244 27.1156C84.3485 26.4619 85.6108 26.1351 87.2112 26.1351C89.1272 26.1351 90.5811 26.631 91.5729 27.6228C92.5647 28.592 93.0606 29.9895 93.0606 31.8154V42.6688H95.6979V43.7169H93.3649ZM86.3997 43.0745C87.1436 43.0745 87.8424 42.9844 88.496 42.804C89.1723 42.6012 89.7583 42.3194 90.2542 41.9588C90.7501 41.5981 91.1446 41.1473 91.4376 40.6063C91.7307 40.0653 91.8772 39.4342 91.8772 38.7129V35.1965H87.3803C85.4868 35.1965 84.1119 35.5233 83.2553 36.177C82.3987 36.8082 81.9705 37.6534 81.9705 38.7129V39.6596C81.9705 40.7866 82.3762 41.6432 83.1877 42.2292C84.0217 42.7928 85.0924 43.0745 86.3997 43.0745Z" fill="#0D5C36"/>
<path d="M102.543 43.7169V26.5408H103.727V29.55H103.862C104.223 28.7385 104.809 28.0398 105.62 27.4537C106.432 26.8451 107.604 26.5408 109.137 26.5408H110.421V27.6566H108.934C108.235 27.6566 107.57 27.7467 106.939 27.9271C106.308 28.1074 105.755 28.3779 105.282 28.7385C104.809 29.0992 104.425 29.55 104.132 30.091C103.862 30.6094 103.727 31.218 103.727 31.9168V43.7169H102.543Z" fill="#0D5C36"/>
<path d="M114.961 26.5408H116.212L121.96 42.4321H122.061L127.809 26.5408H128.993L122.67 43.7169H121.284L114.961 26.5408Z" fill="#0D5C36"/>
<path d="M141.573 44.1227C139.296 44.1227 137.493 43.3563 136.163 41.8235C134.856 40.2907 134.202 38.0592 134.202 35.1289C134.202 32.2211 134.845 30.0008 136.129 28.468C137.414 26.9127 139.184 26.1351 141.438 26.1351C142.497 26.1351 143.455 26.3379 144.312 26.7437C145.191 27.1494 145.935 27.7242 146.543 28.468C147.174 29.2119 147.659 30.1135 147.997 31.1729C148.335 32.2098 148.504 33.3707 148.504 34.6555V35.1965H135.453V36.1094C135.453 37.1688 135.588 38.1268 135.859 38.9834C136.129 39.8399 136.524 40.5725 137.042 41.1811C137.583 41.7897 138.226 42.2631 138.969 42.6012C139.736 42.9167 140.604 43.0745 141.573 43.0745C144.3 43.0745 146.183 41.7672 147.219 39.1524L148.132 39.6596C147.614 41.012 146.802 42.094 145.698 42.9055C144.593 43.7169 143.218 44.1227 141.573 44.1227ZM141.438 27.1832C140.491 27.1832 139.646 27.3523 138.902 27.6904C138.181 28.0059 137.561 28.468 137.042 29.0766C136.524 29.6852 136.129 30.4178 135.859 31.2744C135.588 32.1309 135.453 33.0776 135.453 34.1145V34.2498H147.219V34.0469C147.219 33.01 147.073 32.0746 146.78 31.2406C146.509 30.384 146.115 29.6627 145.597 29.0766C145.101 28.468 144.492 28.0059 143.771 27.6904C143.072 27.3523 142.294 27.1832 141.438 27.1832Z" fill="#0D5C36"/>
<path d="M161.153 44.1227C159.733 44.1227 158.494 43.8635 157.434 43.345C156.397 42.8266 155.484 42.0151 154.695 40.9106L155.608 40.2344C156.375 41.2487 157.186 41.9813 158.043 42.4321C158.922 42.8604 159.97 43.0745 161.187 43.0745C162.72 43.0745 163.881 42.759 164.67 42.1278C165.459 41.4967 165.853 40.5838 165.853 39.3891C165.853 38.2395 165.515 37.383 164.839 36.8194C164.185 36.2559 163.171 35.8614 161.796 35.636L160.342 35.3994C159.576 35.2867 158.877 35.1176 158.246 34.8922C157.637 34.6668 157.107 34.3737 156.657 34.0131C156.228 33.6299 155.89 33.1678 155.642 32.6268C155.417 32.0858 155.304 31.4322 155.304 30.6658C155.304 29.9219 155.439 29.2682 155.71 28.7047C156.003 28.1412 156.397 27.6678 156.893 27.2846C157.412 26.9014 158.009 26.6197 158.685 26.4394C159.384 26.2365 160.128 26.1351 160.917 26.1351C162.359 26.1351 163.531 26.3943 164.433 26.9127C165.335 27.4086 166.079 27.9947 166.665 28.6709L165.819 29.4486C165.571 29.1555 165.29 28.8738 164.974 28.6033C164.681 28.3328 164.343 28.0961 163.96 27.8932C163.577 27.6678 163.126 27.4988 162.607 27.3861C162.111 27.2508 161.537 27.1832 160.883 27.1832C159.53 27.1832 158.449 27.4762 157.637 28.0623C156.848 28.6484 156.454 29.5049 156.454 30.632C156.454 31.7815 156.792 32.6268 157.468 33.1678C158.144 33.6862 159.17 34.0582 160.545 34.2836L161.999 34.5203C163.599 34.7682 164.828 35.2641 165.684 36.008C166.563 36.7293 167.003 37.8225 167.003 39.2877C167.003 40.8204 166.484 42.0151 165.447 42.8717C164.411 43.7057 162.979 44.1227 161.153 44.1227Z" fill="#0D5C36"/>
<path d="M177.174 43.7169C176.205 43.7169 175.72 43.2436 175.72 42.2969V27.5889H172.609V26.5408H174.841C175.224 26.5408 175.472 26.4619 175.585 26.3041C175.72 26.1463 175.788 25.8758 175.788 25.4926V21.672H176.903V26.5408H180.927V27.5889H176.903V42.6688H180.656V43.7169H177.174Z" fill="#0D5C36"/>
<path d="M28.2854 8.48096C27.9012 8.10499 27.3332 8.08162 26.926 8.41064L26.8469 8.48096C25.3651 9.93108 22.4686 13.0059 19.9446 17.1069C17.419 21.2104 15.2834 26.3142 15.2834 31.8306C15.2835 37.3469 17.4191 42.4508 19.9446 46.5542C22.4685 50.655 25.3651 53.7291 26.8469 55.1792C27.2567 55.5802 27.8756 55.5802 28.2854 55.1792C29.7672 53.7291 32.6638 50.655 35.1877 46.5542C37.7133 42.4508 39.8488 37.3469 39.8489 31.8306C39.8489 26.3142 37.7133 21.2104 35.1877 17.1069C32.979 13.5182 30.4852 10.7151 28.9036 9.09912L28.2854 8.48096Z" stroke="#0D5C36" stroke-width="0.792453"/>
<path d="M29.2258 29.4277C29.2889 29.619 29.4222 29.7779 29.5969 29.874L29.6741 29.9111L34.2834 31.83L29.6741 33.749C29.4614 33.8375 29.2978 34.0145 29.2258 34.2333L27.5657 39.2792L25.9065 34.2333C25.8435 34.0418 25.7102 33.8822 25.5354 33.7861L25.4583 33.749L20.8489 31.83L25.4583 29.9111C25.6441 29.8336 25.7928 29.6891 25.8752 29.5078L25.9065 29.4277L27.5657 24.3818L29.2258 29.4277Z" stroke="#0D5C36" stroke-width="0.792453"/>
<path d="M27.5659 16.7736L32.3206 12.8113" stroke="#0D5C36" stroke-width="0.792453"/>
<path d="M27.5659 19.9434L33.9055 15.1887" stroke="#0D5C36" stroke-width="0.792453"/>
<path d="M27.5659 23.1132L35.4904 17.566" stroke="#0D5C36" stroke-width="0.792453"/>
<path d="M27.5659 46.8868L22.8112 50.8491" stroke="#0D5C36" stroke-width="0.792453"/>
<path d="M27.5659 43.717L21.2263 48.4717" stroke="#0D5C36" stroke-width="0.792453"/>
<path d="M27.5659 40.5472L19.6414 46.0944" stroke="#0D5C36" stroke-width="0.792453"/>
<path d="M27.5659 8.05658V24.6981" stroke="#0D5C36" stroke-width="0.792453"/>
<path d="M27.5659 38.9623V55.6038" stroke="#0D5C36" stroke-width="0.792453"/>
</svg>
