<svg width="157" height="48" viewBox="0 0 157 48" fill="none" xmlns="http://www.w3.org/2000/svg">
<path d="M82.4564 23.6884L64.3366 41.8348L69.6691 47.1673L93.1479 23.6884L69.6691 0.236206L64.3366 5.56871L82.4564 23.6884Z" fill="#0063F9"/>
<path d="M50.8066 23.6884L32.6868 41.8348L38.0192 47.1673L61.498 23.6884L38.0192 0.236206L32.6868 5.56871L50.8066 23.6884Z" fill="#0063F9"/>
<path d="M18.7852 23.6884L0.638874 41.8348L5.99793 47.1673L29.4502 23.6884L5.99793 0.236206L0.638874 5.56871L18.7852 23.6884Z" fill="#0063F9"/>
<path d="M146.128 23.6884L128.008 41.8348L133.341 47.1673L156.819 23.6884L133.341 0.236206L128.008 5.56871L146.128 23.6884Z" fill="#0063F9"/>
<path d="M114.478 23.6884L96.3582 41.8348L101.691 47.1673L125.169 23.6884L101.691 0.236206L96.3582 5.56871L114.478 23.6884Z" fill="#0063F9"/>
</svg>
