<svg width="341" height="11" viewBox="0 0 341 11" fill="none" xmlns="http://www.w3.org/2000/svg">
<path d="M5.08443 10.9051C2.32627 10.9051 0.0625 8.66741 0.0625 5.88323C0.0625 3.12508 2.30025 0.861328 5.08443 0.861328C7.8686 0.861328 10.1064 3.09906 10.1064 5.88323C10.1064 8.66741 7.8686 10.9051 5.08443 10.9051Z" fill="#0B315E"/>
<path d="M52.2851 10.9051C49.527 10.9051 47.2632 8.66741 47.2632 5.88323C47.2632 3.12508 49.5009 0.861328 52.2851 0.861328C55.0693 0.861328 57.307 3.09906 57.307 5.88323C57.307 8.66741 55.0433 10.9051 52.2851 10.9051Z" fill="#0B315E"/>
<path d="M99.4604 10.9051C96.7022 10.9051 94.4385 8.66741 94.4385 5.88323C94.4385 3.12508 96.6762 0.861328 99.4604 0.861328C102.219 0.861328 104.482 3.09906 104.482 5.88323C104.482 8.66741 102.245 10.9051 99.4604 10.9051Z" fill="#0B315E"/>
<path d="M146.661 10.9051C143.903 10.9051 141.639 8.66741 141.639 5.88323C141.639 3.12508 143.877 0.861328 146.661 0.861328C149.419 0.861328 151.683 3.09906 151.683 5.88323C151.683 8.66741 149.419 10.9051 146.661 10.9051Z" fill="#0B315E"/>
<path d="M193.862 10.9051C191.104 10.9051 188.84 8.66741 188.84 5.88323C188.84 3.12508 191.078 0.861328 193.862 0.861328C196.62 0.861328 198.884 3.09906 198.884 5.88323C198.858 8.66741 196.62 10.9051 193.862 10.9051Z" fill="#0B315E"/>
<path d="M241.037 10.9051C238.279 10.9051 236.015 8.66741 236.015 5.88323C236.015 3.12508 238.253 0.861328 241.037 0.861328C243.795 0.861328 246.059 3.09906 246.059 5.88323C246.059 8.66741 243.795 10.9051 241.037 10.9051Z" fill="#0B315E"/>
<path d="M288.238 10.9051C285.48 10.9051 283.216 8.66741 283.216 5.88323C283.216 3.12508 285.454 0.861328 288.238 0.861328C290.996 0.861328 293.26 3.09906 293.26 5.88323C293.234 8.66741 290.996 10.9051 288.238 10.9051Z" fill="#0B315E"/>
<path d="M335.413 10.9051C332.654 10.9051 330.391 8.66741 330.391 5.88323C330.391 3.12508 332.628 0.861328 335.413 0.861328C338.171 0.861328 340.434 3.09906 340.434 5.88323C340.434 8.66741 338.197 10.9051 335.413 10.9051Z" fill="#0B315E"/>
</svg>
