<svg width="356" height="387" viewBox="0 0 356 387" fill="none" xmlns="http://www.w3.org/2000/svg">
<path fill-rule="evenodd" clip-rule="evenodd" d="M84.1698 169.052C83.4148 167.843 82.6549 166.626 82.0848 165.324L82.0892 165.328C81.7655 164.156 81.8039 163.741 82.0196 162.471C82.0772 162.508 82.1326 162.544 82.1859 162.578C83.1081 163.174 83.4023 163.364 84.1316 164.206C84.4663 164.738 84.7919 165.275 85.1175 165.813C85.6589 166.706 86.2006 167.6 86.7848 168.471C88.8377 171.643 92.1404 175.99 95.0821 179.603C98.2423 183.504 101.493 187.356 105.227 190.832C110.805 195.848 116.521 199.641 123.673 203.57C126.409 205.162 129.31 206.544 132.221 207.916C133.377 208.368 134.536 208.816 135.694 209.264C136.274 209.489 136.854 209.713 137.434 209.938C138.24 210.191 139.042 210.453 139.844 210.715C141.129 211.136 142.415 211.556 143.72 211.938C144.535 212.141 145.35 212.345 146.164 212.549C147.383 212.854 148.602 213.159 149.824 213.461L156.855 214.882C158.409 215.111 159.966 215.336 161.522 215.56C162.3 215.672 163.078 215.784 163.856 215.897C164.458 215.949 165.061 216.001 165.663 216.053C167.304 216.195 168.944 216.336 170.585 216.476C171.495 216.505 172.404 216.536 173.314 216.568C174.554 216.611 175.794 216.654 177.033 216.691C177.364 216.68 177.694 216.67 178.025 216.659C183.006 216.499 187.999 216.339 193.025 215.765C194.875 215.595 199.44 214.77 202.359 214.127C202.807 214.031 203.255 213.938 203.704 213.844C205.935 213.379 208.173 212.913 210.362 212.186C210.749 212.042 211.135 211.89 211.521 211.739C212.97 211.17 214.423 210.599 215.946 210.423C215.287 211.479 214.394 212.507 213.215 213.178C211.922 213.894 210.479 214.313 209.074 214.722L208.975 214.751C206.482 215.41 203.968 215.921 201.457 216.431C200.864 216.551 200.27 216.672 199.678 216.794C193.563 218.065 187.448 218.439 181.383 218.684L176.614 218.836C175.503 218.798 174.391 218.759 173.28 218.723C170.732 218.683 168.235 218.459 165.737 218.234L165.532 218.216C163.538 218.086 161.599 217.799 159.66 217.511C159.084 217.426 158.508 217.341 157.93 217.26C156.151 217.036 154.426 216.678 152.7 216.321C152.058 216.188 151.416 216.055 150.771 215.929C148.801 215.553 146.884 215.065 144.967 214.576C144.11 214.358 143.253 214.14 142.392 213.931C141.603 213.67 140.808 213.419 140.013 213.168C138.119 212.57 136.225 211.972 134.416 211.235L130.692 209.792C130.174 209.544 129.655 209.296 129.137 209.048C128.617 208.799 128.097 208.55 127.577 208.301C125.896 207.54 124.313 206.657 122.73 205.774C122.243 205.503 121.756 205.231 121.266 204.963C114.524 201.233 108.202 196.964 102.769 191.916C99.3075 188.661 96.2839 185.066 93.3336 181.434C90.1756 177.549 87.1123 173.593 84.4013 169.424C84.3243 169.3 84.2471 169.176 84.1698 169.052ZM111.525 188.073C110.444 187.122 109.36 186.168 108.422 185.104L108.422 185.106C107.691 184.237 107.281 183.168 107.085 182.055C108.191 182.523 109.182 183.156 110.038 183.899C110.925 184.768 111.854 185.604 112.817 186.41C113.094 186.641 113.371 186.872 113.647 187.103C116.666 189.625 119.687 192.149 122.958 194.431C125.243 196.069 129.428 198.394 132.899 200.037C135.639 201.361 138.413 202.649 141.381 203.636C146.599 205.481 153.834 207.112 160.474 208.155C162.746 208.47 165.055 208.678 167.363 208.885C168.04 208.946 168.717 209.007 169.393 209.071C173.108 209.381 175.343 209.519 179.221 209.579C180.247 209.588 181.276 209.579 182.304 209.57C182.425 209.569 182.546 209.568 182.667 209.567C183.785 209.529 184.851 209.786 185.724 210.272C185.917 210.383 186.104 210.504 186.272 210.641C185.496 211.063 184.653 211.392 183.796 211.547C182.893 211.72 182.004 211.711 181.116 211.702C180.722 211.698 180.329 211.694 179.935 211.706C177.095 211.713 174.283 211.576 171.488 211.394C167.571 211.092 163.656 210.769 159.799 210.275C152.859 209.181 146.045 207.692 139.664 205.455C136.423 204.363 133.419 202.907 130.438 201.439C126.392 199.457 122.551 197.204 119.139 194.518C117.23 193.085 115.458 191.528 113.687 189.971C113.184 189.528 112.681 189.086 112.174 188.646C111.959 188.455 111.742 188.264 111.525 188.073Z" fill="#0063F9"/>
<g clip-path="url(#clip0_587_3096)">
<path d="M80.1359 162.567C79.8498 164.551 79.6533 166.959 79.4707 168.277C79.3257 169.43 79.1944 170.583 79.0645 171.735C79.0458 172.174 78.8838 172.639 78.9808 173.058C79.377 174.091 81.0034 173.443 80.9041 172.539C80.9047 172.528 80.9037 172.518 80.9043 172.507C80.9751 171.86 81.0546 171.212 81.1239 170.566C81.3685 168.479 81.6904 165.808 81.9748 163.147C82.0096 163.142 82.0443 163.137 82.0791 163.132C82.784 163.043 83.4878 163.012 84.1891 162.981C86.1937 162.875 89.7876 162.976 92.587 162.959C93.7416 162.948 94.1015 162.928 94.6922 162.894C94.896 162.865 95.1044 162.859 95.3078 162.827C95.463 162.817 95.6211 162.769 95.7554 162.682C96.1051 162.464 96.2276 162.022 96.0169 161.75C95.9031 161.618 95.75 161.521 95.5464 161.509C95.5504 161.508 95.5594 161.511 95.5734 161.514C95.4904 161.5 95.4048 161.492 95.3204 161.479C94.8722 161.409 94.4132 161.379 93.9531 161.353C92.0708 161.266 90.1744 161.244 88.2781 161.221C86.6945 161.197 85.1017 161.23 83.5029 161.311C82.3735 161.421 80.5945 161.3 80.1383 162.567L80.1359 162.567Z" fill="#0063F9"/>
</g>
<g clip-path="url(#clip1_587_3096)">
<path d="M216.491 209.585C214.423 209.072 211.845 208.577 210.469 208.242C209.257 207.962 208.04 207.693 206.823 207.426C206.345 207.35 205.904 207.15 205.396 207.175C204.074 207.37 204.058 208.837 205.104 208.876C205.116 208.878 205.128 208.879 205.14 208.881C205.824 209.029 206.505 209.185 207.19 209.331C209.389 209.823 212.202 210.461 215.02 211.065C215.01 211.095 214.999 211.125 214.989 211.155C214.77 211.765 214.487 212.366 214.206 212.964C213.419 214.678 211.688 217.711 210.445 220.087C209.938 221.067 209.798 221.375 209.57 221.88C209.51 222.057 209.422 222.234 209.366 222.411C209.307 222.544 209.288 222.685 209.325 222.81C209.409 223.137 209.843 223.301 210.238 223.159C210.436 223.081 210.613 222.964 210.718 222.793C210.717 222.797 210.71 222.804 210.699 222.815C210.752 222.747 210.8 222.676 210.853 222.606C211.132 222.235 211.372 221.85 211.608 221.464C212.553 219.88 213.432 218.275 214.311 216.671C215.051 215.332 215.733 213.977 216.364 212.611C216.751 211.638 217.686 210.146 216.489 209.587L216.491 209.585Z" fill="#0063F9"/>
</g>
<defs>
<clipPath id="clip0_587_3096">
<rect width="9.5322" height="20.4935" fill="white" transform="matrix(-0.60495 -0.796264 0.837206 -0.546888 79.5938 173.928)"/>
</clipPath>
<clipPath id="clip1_587_3096">
<rect width="11.6568" height="16.7402" fill="white" transform="matrix(0.943783 -0.330565 0.279392 0.960177 204.157 207.576)"/>
</clipPath>
</defs>
</svg>
