<svg width="217" height="59" viewBox="0 0 217 59" fill="none" xmlns="http://www.w3.org/2000/svg">
<path d="M69.6565 37.7214V17.3403H82.4966V20.1936H72.801V26.0459H81.6814V28.8993H72.801V34.8681H82.6422V37.7214H69.6565Z" fill="#5D3CBB"/>
<path d="M91.9475 38.1291C90.7634 38.1291 89.6667 37.8379 88.6574 37.2556C87.648 36.6733 86.8328 35.8386 86.2116 34.7516C85.6099 33.6452 85.309 32.3156 85.309 30.7627V30.326C85.309 28.7925 85.6099 27.4726 86.2116 26.3662C86.8134 25.2598 87.6189 24.4154 88.6283 23.8331C89.6376 23.2508 90.744 22.9596 91.9475 22.9596C92.8792 22.9596 93.6556 23.0761 94.2768 23.309C94.9173 23.542 95.4414 23.8428 95.849 24.2116C96.2566 24.561 96.5672 24.9298 96.7807 25.318H97.2466V17.3403H100.246V37.7214H97.3048V35.6833H96.839C96.4702 36.3045 95.9072 36.8674 95.1502 37.372C94.4126 37.8767 93.345 38.1291 91.9475 38.1291ZM92.7918 35.5086C94.0924 35.5086 95.1599 35.0913 95.9946 34.2566C96.8487 33.422 97.2757 32.2282 97.2757 30.6754V30.4133C97.2757 28.8799 96.8584 27.6958 96.0237 26.8612C95.1891 26.0265 94.1118 25.6092 92.7918 25.6092C91.5107 25.6092 90.4432 26.0265 89.5891 26.8612C88.7544 27.6958 88.3371 28.8799 88.3371 30.4133V30.6754C88.3371 32.2282 88.7544 33.422 89.5891 34.2566C90.4432 35.0913 91.5107 35.5086 92.7918 35.5086Z" fill="#5D3CBB"/>
<path d="M103.961 30.6171V30.1804C103.961 28.6664 104.262 27.3756 104.864 26.308C105.485 25.2404 106.3 24.4154 107.31 23.8331C108.319 23.2508 109.426 22.9596 110.629 22.9596C112.027 22.9596 113.094 23.2217 113.832 23.7458C114.589 24.2699 115.142 24.8328 115.491 25.4345H115.957V23.3673H118.869V40.6621C118.869 41.5356 118.607 42.2344 118.083 42.7585C117.578 43.2826 116.879 43.5446 115.986 43.5446H106.32V40.9242H115.055C115.618 40.9242 115.899 40.633 115.899 40.0507V35.4795H115.433C115.22 35.8289 114.919 36.188 114.531 36.5568C114.142 36.9256 113.628 37.2265 112.987 37.4594C112.366 37.6923 111.58 37.8088 110.629 37.8088C109.426 37.8088 108.309 37.5273 107.281 36.9644C106.271 36.3821 105.466 35.5572 104.864 34.4896C104.262 33.4026 103.961 32.1118 103.961 30.6171ZM111.444 35.1883C112.745 35.1883 113.812 34.7807 114.647 33.9655C115.501 33.1308 115.928 31.9856 115.928 30.5298V30.2678C115.928 28.7731 115.511 27.6279 114.676 26.8321C113.841 26.0168 112.764 25.6092 111.444 25.6092C110.163 25.6092 109.096 26.0168 108.241 26.8321C107.407 27.6279 106.99 28.7731 106.99 30.2678V30.5298C106.99 31.9856 107.407 33.1308 108.241 33.9655C109.096 34.7807 110.163 35.1883 111.444 35.1883Z" fill="#5D3CBB"/>
<path d="M129.864 38.1291C128.409 38.1291 127.137 37.8282 126.05 37.2265C124.963 36.6053 124.109 35.7416 123.488 34.6351C122.886 33.5093 122.585 32.2088 122.585 30.7336V30.3842C122.585 28.8896 122.886 27.5891 123.488 26.4827C124.09 25.3569 124.924 24.4931 125.992 23.8914C127.079 23.2702 128.331 22.9596 129.748 22.9596C131.126 22.9596 132.33 23.2702 133.358 23.8914C134.406 24.4931 135.222 25.3375 135.804 26.4244C136.386 27.5114 136.678 28.7828 136.678 30.2386V31.3742H125.643C125.681 32.6359 126.099 33.6452 126.895 34.4022C127.71 35.1398 128.719 35.5086 129.923 35.5086C131.048 35.5086 131.893 35.2563 132.456 34.7516C133.038 34.2469 133.484 33.6646 133.795 33.0047L136.27 34.2858C135.998 34.8293 135.6 35.4019 135.076 36.0036C134.571 36.6053 133.902 37.11 133.067 37.5176C132.232 37.9252 131.165 38.1291 129.864 38.1291ZM125.672 29.074H133.62C133.543 27.987 133.155 27.1426 132.456 26.5409C131.757 25.9198 130.845 25.6092 129.719 25.6092C128.593 25.6092 127.671 25.9198 126.953 26.5409C126.254 27.1426 125.827 27.987 125.672 29.074Z" fill="#5D3CBB"/>
<path d="M140.2 37.7214V17.3403H143.345V25.813H143.81L151.41 17.3403H155.515L146.314 27.3853L155.835 37.7214H151.614L143.81 29.074H143.345V37.7214H140.2Z" fill="#5D3CBB"/>
<path d="M162.741 38.1291C161.712 38.1291 160.79 37.9544 159.975 37.605C159.179 37.2556 158.538 36.7412 158.053 36.0618C157.587 35.3825 157.354 34.5575 157.354 33.587C157.354 32.597 157.587 31.7818 158.053 31.1412C158.538 30.4813 159.188 29.9863 160.004 29.6563C160.838 29.3263 161.78 29.1613 162.828 29.1613H167.195V28.2296C167.195 27.395 166.943 26.7253 166.438 26.2206C165.934 25.716 165.157 25.4636 164.109 25.4636C163.08 25.4636 162.294 25.7063 161.751 26.1915C161.207 26.6768 160.848 27.3076 160.673 28.0841L157.878 27.1815C158.111 26.405 158.48 25.7063 158.985 25.0851C159.509 24.4446 160.198 23.9302 161.052 23.542C161.906 23.1538 162.935 22.9596 164.138 22.9596C166.002 22.9596 167.467 23.4352 168.535 24.3863C169.602 25.3375 170.136 26.6865 170.136 28.4334V34.344C170.136 34.9263 170.408 35.2175 170.951 35.2175H172.174V37.7214H169.932C169.253 37.7214 168.7 37.5467 168.273 37.1973C167.846 36.848 167.632 36.3724 167.632 35.7707V35.6833H167.195C167.04 35.9745 166.807 36.3142 166.497 36.7024C166.186 37.0906 165.73 37.4303 165.128 37.7214C164.526 37.9932 163.731 38.1291 162.741 38.1291ZM163.177 35.6542C164.381 35.6542 165.351 35.3145 166.089 34.6351C166.827 33.9364 167.195 32.9852 167.195 31.7818V31.4906H163.003C162.207 31.4906 161.566 31.6653 161.081 32.0147C160.596 32.3447 160.353 32.8397 160.353 33.4996C160.353 34.1596 160.605 34.6837 161.11 35.0719C161.615 35.4601 162.304 35.6542 163.177 35.6542Z" fill="#5D3CBB"/>
<path d="M175.09 37.7214V23.3673H178.031V25.056H178.497C178.73 24.4543 179.098 24.0175 179.603 23.7458C180.127 23.4546 180.768 23.309 181.525 23.309H183.243V26.0168H181.408C180.438 26.0168 179.642 26.2886 179.021 26.8321C178.4 27.3562 178.089 28.1714 178.089 29.2778V37.7214H175.09Z" fill="#5D3CBB"/>
<path d="M191.736 37.7214C190.863 37.7214 190.164 37.4594 189.64 36.9353C189.135 36.4112 188.883 35.7124 188.883 34.839V25.9004H184.923V23.3673H188.883V18.6214H191.882V23.3673H196.162V25.9004H191.882V34.3149C191.882 34.8972 192.154 35.1883 192.697 35.1883H195.696V37.7214H191.736Z" fill="#5D3CBB"/>
<rect x="27.2209" y="32.7433" width="20.5809" height="20.5809" transform="rotate(-45 27.2209 32.7433)" stroke="#5D3CBB" stroke-width="2.72962"/>
<rect x="27.2209" y="24.502" width="20.5809" height="20.5809" transform="rotate(-45 27.2209 24.502)" stroke="#5D3CBB" stroke-width="2.72962"/>
</svg>
