<svg width="124" height="48" viewBox="0 0 124 48" fill="none" xmlns="http://www.w3.org/2000/svg">
<path d="M-111.305 36.5471C-112.979 36.5471 -114.556 36.2203 -116.036 35.5665C-117.504 34.9013 -118.851 33.9264 -120.079 32.6419C-120.606 32.1028 -121.088 31.4892 -121.524 30.8011C-121.96 30.1014 -122.332 29.3273 -122.642 28.4785C-122.952 27.6298 -123.192 26.7008 -123.365 25.6915C-123.537 24.6708 -123.623 23.564 -123.623 22.3712C-123.623 21.5224 -123.468 20.6565 -123.158 19.7734C-122.837 18.8788 -122.401 18.0243 -121.851 17.21C-121.3 16.3842 -120.652 15.6215 -119.907 14.9219C-119.161 14.2108 -118.358 13.6029 -117.498 13.0983C-116.328 12.3872 -115.164 11.8998 -114.006 11.636C-112.836 11.3607 -111.758 11.2231 -110.771 11.2231C-110.278 11.2231 -109.762 11.2632 -109.223 11.3435C-108.684 11.4238 -108.173 11.527 -107.692 11.6532C-107.199 11.7793 -106.751 11.917 -106.35 12.0661C-105.937 12.2152 -105.616 12.3585 -105.386 12.4962C-104.836 12.8288 -104.274 13.2417 -103.7 13.7348C-103.127 14.228 -102.588 14.7613 -102.083 15.3348C-101.579 15.9083 -101.126 16.4989 -100.724 17.1068C-100.311 17.7032 -99.9902 18.2709 -99.7608 18.81C-99.3709 19.7046 -99.1071 20.5992 -98.9694 21.4938C-98.8318 22.3884 -98.763 23.3174 -98.763 24.2808C-98.763 25.313 -98.8719 26.2822 -99.0899 27.1882C-99.2963 28.0829 -99.6002 28.9258 -100.002 29.7172C-100.403 30.5086 -100.896 31.2541 -101.481 31.9537C-102.055 32.6419 -102.708 33.3014 -103.442 33.9322C-103.981 34.3795 -104.532 34.7694 -105.094 35.102C-105.656 35.4232 -106.258 35.6927 -106.9 35.9106C-107.531 36.1285 -108.208 36.2891 -108.93 36.3923C-109.653 36.4955 -110.444 36.5471 -111.305 36.5471ZM-119.132 24.1432C-119.132 24.6937 -119.104 25.2557 -119.046 25.8291C-118.989 26.3911 -118.897 26.9531 -118.771 27.5151C-118.645 28.0656 -118.484 28.599 -118.289 29.1151C-118.083 29.6312 -117.836 30.1129 -117.55 30.5602C-117.183 31.1681 -116.775 31.7645 -116.328 32.3494C-115.869 32.9229 -115.365 33.4447 -114.814 33.915C-114.252 34.3737 -113.639 34.7465 -112.973 35.0332C-112.297 35.3085 -111.563 35.4461 -110.771 35.4461C-110.026 35.4461 -109.303 35.2683 -108.604 34.9128C-107.904 34.5458 -107.256 34.0698 -106.66 33.4849C-106.063 32.8885 -105.53 32.2175 -105.06 31.472C-104.578 30.7265 -104.188 29.9695 -103.89 29.2011C-103.855 29.0864 -103.787 28.88 -103.683 28.5818C-103.569 28.2721 -103.454 27.8993 -103.339 27.4635C-103.225 27.0277 -103.127 26.5345 -103.047 25.984C-102.955 25.4335 -102.909 24.8485 -102.909 24.2292C-102.909 23.6787 -102.955 23.0823 -103.047 22.44C-103.127 21.7977 -103.259 21.1382 -103.442 20.4615C-103.614 19.7734 -103.832 19.0852 -104.096 18.3971C-104.36 17.7089 -104.67 17.0494 -105.025 16.4186C-105.335 15.8796 -105.696 15.352 -106.109 14.8359C-106.522 14.3083 -106.992 13.8438 -107.52 13.4424C-108.036 13.0295 -108.609 12.7026 -109.24 12.4617C-109.871 12.2094 -110.559 12.0833 -111.305 12.0833C-112.016 12.0833 -112.692 12.2324 -113.335 12.5306C-113.977 12.8288 -114.562 13.2015 -115.089 13.6488C-115.617 14.0846 -116.082 14.5549 -116.483 15.0595C-116.873 15.5527 -117.188 16.0057 -117.429 16.4186C-117.613 16.7398 -117.808 17.1412 -118.014 17.6229C-118.209 18.1046 -118.393 18.6666 -118.565 19.3089C-118.725 19.9512 -118.863 20.6795 -118.978 21.4938C-119.081 22.2966 -119.132 23.1798 -119.132 24.1432Z" fill="#202020"/>
<path d="M-79.2022 36.1343C-79.2251 36.1343 -79.271 36.1343 -79.3398 36.1343C-79.4086 36.1457 -79.4889 36.1515 -79.5807 36.1515C-79.661 36.1629 -79.7355 36.1687 -79.8043 36.1687C-79.8731 36.1801 -79.919 36.1859 -79.942 36.1859C-80.0681 36.1859 -80.1713 36.1457 -80.2516 36.0654C-80.3204 35.9737 -80.3549 35.8647 -80.3549 35.7386C-80.3549 35.5436 -80.2918 35.4174 -80.1656 35.3601C-80.028 35.3027 -79.8445 35.2741 -79.6151 35.2741C-79.4545 35.2741 -79.2767 35.2855 -79.0818 35.3085C-78.8868 35.3199 -78.709 35.3257 -78.5484 35.3257C-78.3535 35.3257 -78.1872 35.3027 -78.0495 35.2569C-77.9004 35.211 -77.8201 35.0963 -77.8087 34.9128V22.7669C-77.8201 22.6292 -77.8488 22.5604 -77.8947 22.5604C-77.9635 22.5604 -78.1011 22.7898 -78.3076 23.2486C-78.3879 23.4206 -78.4854 23.6156 -78.6001 23.8335C-78.7147 24.0514 -78.8294 24.2693 -78.9441 24.4872C-79.0474 24.7052 -79.1506 24.9173 -79.2538 25.1238C-79.357 25.3188 -79.4373 25.4851 -79.4947 25.6227C-80.1369 26.9875 -80.7448 28.3352 -81.3183 29.6656C-81.8917 30.9846 -82.534 32.3035 -83.2451 33.6225C-83.2795 33.6798 -83.3426 33.7945 -83.4343 33.9666C-83.5146 34.1271 -83.6006 34.3049 -83.6924 34.4999C-83.7842 34.6949 -83.8816 34.8956 -83.9849 35.102C-84.0766 35.297 -84.1512 35.4633 -84.2085 35.6009C-84.2773 35.7271 -84.3347 35.8074 -84.3806 35.8418C-84.4264 35.8762 -84.478 35.8934 -84.5354 35.8934C-84.6386 35.8934 -84.7533 35.7959 -84.8795 35.6009C-84.9368 35.5321 -85.0056 35.4346 -85.0859 35.3085C-85.1547 35.1823 -85.2694 34.9701 -85.43 34.6719C-85.5791 34.3737 -85.7855 33.9666 -86.0493 33.4505C-86.3131 32.9229 -86.6572 32.229 -87.0816 31.3688C-87.5059 30.4971 -88.0335 29.4248 -88.6643 28.1517C-89.2837 26.8786 -90.0292 25.3532 -90.9008 23.5754C-91.0614 23.3116 -91.199 23.0536 -91.3137 22.8013C-91.4284 22.5375 -91.6062 22.3081 -91.847 22.1131C-91.9503 22.9733 -92.0191 23.8106 -92.0535 24.6249C-92.0879 25.4277 -92.128 26.2478 -92.1739 27.085C-92.2312 28.0599 -92.2886 29.0405 -92.3459 30.0269C-92.3918 31.0018 -92.4148 31.9767 -92.4148 32.9515C-92.4148 33.1351 -92.409 33.33 -92.3976 33.5365C-92.3861 33.7429 -92.3517 33.9379 -92.2943 34.1214C-92.237 34.3049 -92.1567 34.4712 -92.0535 34.6203C-91.9388 34.7579 -91.7839 34.8554 -91.589 34.9128L-89.6105 35.3257C-89.5532 35.3486 -89.5188 35.4002 -89.5073 35.4805C-89.4958 35.5493 -89.4901 35.6067 -89.4901 35.6525C-89.4901 35.9049 -89.6048 36.0425 -89.8342 36.0654H-90.6944C-91.1531 36.0654 -91.5947 36.054 -92.0191 36.031C-92.4434 35.9966 -92.8735 35.9794 -93.3094 35.9794C-93.7796 35.9794 -94.2441 35.9966 -94.7029 36.031C-95.1502 36.054 -95.6089 36.0654 -96.0792 36.0654H-96.5265C-96.5838 36.0425 -96.6125 35.9852 -96.6125 35.8934C-96.6125 35.687 -96.5093 35.5207 -96.3028 35.3945C-96.0964 35.2683 -95.8555 35.1594 -95.5803 35.0676C-95.2935 34.9644 -95.0125 34.8669 -94.7373 34.7752C-94.462 34.6719 -94.2556 34.54 -94.1179 34.3795C-93.9918 34.2189 -93.8886 33.9379 -93.8083 33.5365C-93.7165 33.1351 -93.6477 32.6878 -93.6018 32.1946C-93.5789 31.9193 -93.5502 31.5752 -93.5158 31.1623C-93.4814 30.7494 -93.4413 30.2276 -93.3954 29.5968C-93.338 28.966 -93.2749 28.2147 -93.2061 27.3431C-93.1373 26.4714 -93.0513 25.4392 -92.9481 24.2464C-92.9022 23.9138 -92.8391 23.455 -92.7588 22.8701C-92.6671 22.2737 -92.6212 21.5855 -92.6212 20.8056C-92.6212 20.5648 -92.7474 20.387 -92.9997 20.2723C-93.2405 20.1461 -93.5158 20.0486 -93.8255 19.9798C-94.1237 19.8995 -94.3989 19.8193 -94.6513 19.739C-94.8921 19.6472 -95.0125 19.5153 -95.0125 19.3433C-95.0125 19.2286 -94.9724 19.1368 -94.8921 19.068C-94.8004 18.9992 -94.6971 18.9533 -94.5824 18.9304C-94.4563 18.896 -94.3301 18.8788 -94.204 18.8788C-94.0778 18.8673 -93.9688 18.8616 -93.8771 18.8616C-93.8427 18.8616 -93.7567 18.8731 -93.619 18.896C-93.4699 18.9189 -93.3151 18.9419 -93.1545 18.9648C-92.9825 18.9877 -92.8276 19.0107 -92.69 19.0336C-92.5409 19.0566 -92.4492 19.068 -92.4148 19.068H-90.2643C-90.0349 19.1254 -89.8629 19.2171 -89.7482 19.3433C-89.622 19.458 -89.5188 19.6071 -89.4385 19.7906C-89.3926 19.9053 -89.341 20.0314 -89.2837 20.1691C-89.2148 20.2952 -89.1403 20.4501 -89.06 20.6336C-88.9682 20.8056 -88.865 21.0178 -88.7503 21.2701C-88.6242 21.5224 -88.4751 21.8206 -88.303 22.1647C-88.0278 22.7382 -87.7468 23.3346 -87.46 23.9539C-87.1733 24.5733 -86.8866 25.1926 -86.5999 25.8119C-86.3131 26.4313 -86.0321 27.0506 -85.7569 27.67C-85.4816 28.2778 -85.2121 28.8628 -84.9483 29.4248C-84.9253 29.4821 -84.8737 29.614 -84.7934 29.8204C-84.7132 30.0269 -84.6157 30.2563 -84.501 30.5086C-84.3863 30.7494 -84.2716 30.9903 -84.1569 31.2312C-84.0307 31.4605 -83.916 31.6326 -83.8128 31.7473C-83.7325 31.8505 -83.6523 31.9021 -83.572 31.9021C-83.5032 31.9021 -83.4229 31.8333 -83.3311 31.6957C-83.1361 31.2713 -82.9125 30.7839 -82.6602 30.2333C-82.3964 29.6713 -82.1211 29.0807 -81.8344 28.4613C-81.5477 27.8305 -81.2552 27.1882 -80.957 26.5345C-80.6473 25.8808 -80.3491 25.2442 -80.0624 24.6249C-79.7642 23.9941 -79.4832 23.3977 -79.2194 22.8357C-78.9441 22.2737 -78.6975 21.7748 -78.4796 21.3389C-78.4338 21.2472 -78.3821 21.0866 -78.3248 20.8572C-78.256 20.6164 -78.1814 20.3755 -78.1011 20.1347C-78.0094 19.8823 -77.9119 19.6644 -77.8087 19.4809C-77.7055 19.2859 -77.5965 19.1885 -77.4818 19.1885H-73.783C-73.7027 19.1885 -73.6109 19.1713 -73.5077 19.1368C-73.393 19.091 -73.307 19.068 -73.2497 19.068C-73.112 19.068 -72.9515 19.0852 -72.7679 19.1196C-72.5844 19.1426 -72.464 19.2343 -72.4067 19.3949C-72.3723 19.5096 -72.4067 19.5956 -72.5099 19.653C-72.6131 19.6988 -72.7507 19.739 -72.9228 19.7734C-73.0948 19.7963 -73.2898 19.825 -73.5077 19.8594C-73.7142 19.8938 -73.9149 19.9512 -74.1098 20.0314C-74.2934 20.1117 -74.4482 20.2322 -74.5744 20.3927C-74.7005 20.5533 -74.7636 20.7712 -74.7636 21.0465V34.9988C-74.7636 35.125 -74.7349 35.2052 -74.6776 35.2397C-74.5399 35.2741 -74.3679 35.3027 -74.1615 35.3257C-73.955 35.3486 -73.7428 35.3773 -73.5249 35.4117C-73.307 35.4346 -73.0891 35.469 -72.8712 35.5149C-72.6533 35.5493 -72.464 35.5952 -72.3034 35.6525C-72.2461 35.6984 -72.1945 35.7558 -72.1486 35.8246C-72.1027 35.8819 -72.0798 35.9335 -72.0798 35.9794C-72.0798 36.0482 -72.1085 36.1056 -72.1658 36.1515C-72.2232 36.1973 -72.292 36.2317 -72.3723 36.2547C-72.4411 36.2891 -72.5214 36.312 -72.6131 36.3235C-72.6934 36.335 -72.7565 36.3407 -72.8024 36.3407C-73.5593 36.3407 -74.3163 36.3063 -75.0733 36.2375C-75.8188 36.1687 -76.57 36.1343 -77.327 36.1343H-79.2022Z" fill="#202020"/>
<path d="M-63.7703 27.4979L-60.8285 27.3775C-60.3697 27.3431 -60.0199 27.2341 -59.779 27.0506C-59.5382 26.8556 -59.3604 26.6263 -59.2457 26.3625C-59.1196 26.0872 -59.0278 25.789 -58.9705 25.4679C-58.9016 25.1467 -58.8041 24.8313 -58.678 24.5217C-58.6436 24.384 -58.5862 24.3152 -58.5059 24.3152C-58.3454 24.3152 -58.2651 24.3553 -58.2651 24.4356V25.1238C-58.2651 25.5826 -58.288 26.0815 -58.3339 26.6205C-58.3683 27.1481 -58.3855 27.6011 -58.3855 27.9796C-58.3855 28.3466 -58.3568 28.7366 -58.2995 29.1495C-58.2307 29.5624 -58.1963 29.9867 -58.1963 30.4226C-58.1963 30.4799 -58.202 30.5717 -58.2135 30.6978C-58.225 30.824 -58.2422 30.9559 -58.2651 31.0935C-58.288 31.2312 -58.3224 31.3516 -58.3683 31.4548C-58.4027 31.558 -58.4543 31.6096 -58.5232 31.6096C-58.6493 31.6096 -58.7296 31.5523 -58.764 31.4376C-58.7869 31.3114 -58.8099 31.1967 -58.8328 31.0935C-58.8558 30.9559 -58.8959 30.7896 -58.9532 30.5946C-59.0106 30.3996 -59.0737 30.2047 -59.1425 30.0097C-59.2113 29.8032 -59.2744 29.6197 -59.3317 29.4592C-59.3891 29.2986 -59.4292 29.1896 -59.4522 29.1323C-59.5554 28.9258 -59.7561 28.7653 -60.0543 28.6506C-60.3525 28.5244 -60.6908 28.4327 -61.0693 28.3753C-61.4363 28.3065 -61.8206 28.2664 -62.222 28.2549C-62.6119 28.232 -62.956 28.2205 -63.2542 28.2205H-63.7703C-63.9538 28.2205 -64.0685 28.2606 -64.1144 28.3409C-64.1603 28.4097 -64.1832 28.5244 -64.1832 28.685V34.7235C-64.1832 35.0676 -64.0743 35.2855 -63.8563 35.3773H-58.6264C-58.397 35.3773 -58.1619 35.3773 -57.921 35.3773C-57.6687 35.3658 -57.5024 35.3371 -57.4221 35.2913C-57.2501 35.2454 -57.1067 35.1479 -56.992 34.9988C-56.8658 34.8382 -56.7626 34.6891 -56.6823 34.5515C-56.6479 34.4942 -56.5849 34.3737 -56.4931 34.1902C-56.3899 34.0067 -56.2867 33.8117 -56.1834 33.6053C-56.0687 33.3874 -55.9655 33.1867 -55.8738 33.0032C-55.7705 32.8196 -55.696 32.6992 -55.6501 32.6419C-55.5813 32.5042 -55.4666 32.4354 -55.306 32.4354C-55.2028 32.4354 -55.1283 32.4756 -55.0824 32.5559V35.1192C-55.0824 35.2225 -55.0938 35.3199 -55.1168 35.4117C-55.1283 35.492 -55.1455 35.5952 -55.1684 35.7214C-55.2143 35.8819 -55.2716 35.9909 -55.3404 36.0482C-55.4093 36.0941 -55.5412 36.14 -55.7361 36.1859C-56.8945 36.1859 -57.9956 36.1801 -59.0393 36.1687C-60.0715 36.1572 -61.1209 36.1457 -62.1876 36.1343C-63.2542 36.1343 -64.3782 36.1285 -65.5595 36.1171C-66.7409 36.1056 -68.0598 36.0998 -69.5164 36.0998C-69.7114 36.0998 -69.8089 36.0024 -69.8089 35.8074C-69.8089 35.6812 -69.7458 35.5837 -69.6196 35.5149C-69.4935 35.4461 -69.3788 35.4002 -69.2756 35.3773C-69.2067 35.3773 -69.0978 35.3716 -68.9487 35.3601C-68.7881 35.3486 -68.6161 35.3429 -68.4326 35.3429C-68.2491 35.3314 -68.0713 35.3199 -67.8993 35.3085C-67.7272 35.297 -67.5781 35.2913 -67.452 35.2913C-67.1767 35.2913 -67.0391 35.0734 -67.0391 34.6375V21.9411C-67.0391 21.7461 -67.062 21.5052 -67.1079 21.2185C-67.1423 20.9318 -67.2168 20.6909 -67.3315 20.4959C-67.4118 20.4386 -67.452 20.4099 -67.452 20.4099L-69.8605 20.1691C-70.0784 20.1691 -70.1874 20.0601 -70.1874 19.8422C-70.1874 19.7849 -70.1759 19.716 -70.153 19.6358C-70.13 19.544 -70.0555 19.4981 -69.9293 19.4981H-67.1079C-66.0068 19.4981 -64.923 19.4924 -63.8563 19.4809C-62.7897 19.4695 -61.8091 19.4637 -60.9145 19.4637H-58.4715C-58.288 19.4637 -58.0988 19.4695 -57.9038 19.4809C-57.6974 19.4809 -57.5024 19.4867 -57.3189 19.4981C-57.1354 19.4981 -56.9691 19.5039 -56.82 19.5153C-56.6709 19.5153 -56.5562 19.5153 -56.4759 19.5153C-56.3956 19.5268 -56.3325 19.5669 -56.2867 19.6358C-56.2408 19.7046 -56.2121 19.7906 -56.2006 19.8938C-56.1777 19.9856 -56.1662 20.0831 -56.1662 20.1863C-56.1548 20.278 -56.149 20.3526 -56.149 20.4099V23.2142C-56.149 23.3174 -56.1892 23.369 -56.2694 23.369C-56.3956 23.369 -56.4931 23.2887 -56.5619 23.1281C-56.6193 22.9561 -56.711 22.7554 -56.8372 22.526C-56.9404 22.2737 -57.0666 22.0214 -57.2157 21.769C-57.3648 21.5167 -57.4737 21.3217 -57.5425 21.1841C-57.6458 20.9891 -57.8063 20.84 -58.0242 20.7368C-58.2307 20.6221 -58.4658 20.5361 -58.7296 20.4787C-58.9934 20.4099 -59.2629 20.3583 -59.5382 20.3239C-59.8134 20.2895 -60.0543 20.2494 -60.2607 20.2035C-60.3296 20.2035 -60.5073 20.1977 -60.7941 20.1863C-61.0808 20.1748 -61.4077 20.1691 -61.7747 20.1691C-62.1302 20.1576 -62.4858 20.1461 -62.8413 20.1347C-63.1854 20.1232 -63.4549 20.1175 -63.6499 20.1175C-63.8908 20.1175 -64.0399 20.1863 -64.0972 20.3239C-64.1545 20.4615 -64.1832 20.668 -64.1832 20.9432V27.085C-64.1832 27.1882 -64.1488 27.2857 -64.08 27.3775C-63.9997 27.4578 -63.8965 27.4979 -63.7703 27.4979Z" fill="#202020"/>
<path d="M-52.7082 27.7388C-52.7082 27.108 -52.6337 26.4944 -52.4846 25.898C-52.324 25.2901 -52.1118 24.7224 -51.8481 24.1948C-51.5728 23.6557 -51.2517 23.1625 -50.8846 22.7152C-50.5176 22.2679 -50.1219 21.878 -49.6976 21.5454C-49.3076 21.2472 -48.8661 20.9719 -48.3729 20.7196C-47.8797 20.4558 -47.3521 20.2264 -46.7901 20.0314C-46.2167 19.8365 -45.6145 19.6816 -44.9837 19.5669C-44.3529 19.4522 -43.7106 19.3949 -43.0569 19.3949C-42.277 19.3949 -41.5487 19.4637 -40.872 19.6013C-40.1838 19.739 -39.4842 19.9798 -38.7731 20.3239C-38.647 20.4042 -38.5265 20.4443 -38.4118 20.4443C-38.3086 20.4099 -38.2111 20.3296 -38.1194 20.2035L-37.8269 19.9626C-37.7466 19.9053 -37.6778 19.8766 -37.6205 19.8766C-37.3452 19.8766 -37.2076 20.0486 -37.2076 20.3927V21.8723C-37.2076 22.0328 -37.1789 22.2049 -37.1216 22.3884C-37.0527 22.5604 -37.0069 22.7439 -36.9839 22.9389C-36.9725 22.9848 -36.9667 23.088 -36.9667 23.2486V24.2292C-36.9667 24.298 -37.0126 24.3496 -37.1043 24.384C-37.1961 24.4184 -37.2649 24.4356 -37.3108 24.4356C-37.5631 24.4356 -37.7065 24.3553 -37.7409 24.1948C-37.9588 23.6213 -38.2226 23.088 -38.5323 22.5948C-38.8419 22.1016 -39.2032 21.6715 -39.6161 21.3045C-40.029 20.9375 -40.505 20.6508 -41.044 20.4443C-41.5716 20.2264 -42.168 20.1175 -42.8332 20.1175C-43.659 20.1175 -44.3701 20.2322 -44.9665 20.4615C-45.5514 20.6795 -46.1192 21.0235 -46.6697 21.4938C-46.8532 21.6314 -47.0195 21.769 -47.1686 21.9067C-47.3062 22.0328 -47.4381 22.1762 -47.5643 22.3368C-47.6905 22.4973 -47.8166 22.6751 -47.9428 22.8701C-48.0575 23.0651 -48.1779 23.3002 -48.3041 23.5754C-48.6137 24.1718 -48.8488 24.8141 -49.0094 25.5023C-49.17 26.179 -49.2503 26.8155 -49.2503 27.4119C-49.2503 27.8477 -49.2445 28.2434 -49.2331 28.599C-49.2101 28.9545 -49.1643 29.3101 -49.0954 29.6656C-49.0266 30.0097 -48.9177 30.371 -48.7686 30.7494C-48.6195 31.1165 -48.413 31.5408 -48.1492 32.0225C-47.6331 33.0433 -46.945 33.8519 -46.0848 34.4483C-45.2246 35.0332 -44.2554 35.3257 -43.1773 35.3257C-42.8332 35.3257 -42.5293 35.3142 -42.2655 35.2913C-42.0017 35.2569 -41.7609 35.1995 -41.5429 35.1192C-41.325 35.0389 -41.1186 34.9243 -40.9236 34.7752C-40.7172 34.6146 -40.4992 34.4024 -40.2699 34.1386C-40.2469 34.1157 -40.2125 34.0583 -40.1666 33.9666C-40.1093 33.8748 -40.0806 33.8003 -40.0806 33.7429L-39.9086 29.6484C-39.9086 29.5108 -39.9659 29.3846 -40.0806 29.2699C-40.1953 29.1438 -40.3157 29.052 -40.4419 28.9947C-40.5451 28.9602 -40.7286 28.9144 -40.9924 28.857C-41.2447 28.7997 -41.5028 28.7423 -41.7666 28.685C-42.0189 28.6162 -42.2368 28.5531 -42.4203 28.4957C-42.6038 28.4269 -42.6669 28.3638 -42.6096 28.3065C-42.6096 28.1803 -42.5694 28.1173 -42.4892 28.1173H-35.5044C-35.2177 28.1173 -35.0456 28.1689 -34.9883 28.2721C-34.9195 28.3753 -34.885 28.4556 -34.885 28.5129C-34.885 28.6162 -34.9481 28.6907 -35.0743 28.7366C-35.189 28.7825 -35.3381 28.8226 -35.5216 28.857C-35.6936 28.88 -35.8829 28.9029 -36.0893 28.9258C-36.2843 28.9373 -36.4563 28.9602 -36.6054 28.9947C-36.938 29.052 -37.1043 29.1896 -37.1043 29.4075V33.7257C-37.1043 33.806 -37.0355 33.8461 -36.8979 33.8461C-36.7717 33.8461 -36.6456 33.8175 -36.5194 33.7601C-36.3818 33.6913 -36.2212 33.6569 -36.0377 33.6569H-35.8313C-35.7395 33.6569 -35.6707 33.6798 -35.6248 33.7257C-35.4987 33.8175 -35.4356 33.892 -35.4356 33.9494C-35.4356 34.0641 -35.4987 34.1501 -35.6248 34.2074C-35.7395 34.2648 -35.8485 34.3221 -35.9517 34.3795C-36.6972 34.6547 -37.4198 34.9013 -38.1194 35.1192C-38.8075 35.3257 -39.4899 35.5034 -40.1666 35.6525C-40.8318 35.8016 -41.4971 35.9163 -42.1623 35.9966C-42.8275 36.0654 -43.5042 36.0998 -44.1923 36.0998C-44.6167 36.0998 -45.0583 36.0654 -45.517 35.9966C-45.9643 35.9163 -46.4059 35.8131 -46.8417 35.687C-47.2776 35.5608 -47.6962 35.4117 -48.0976 35.2397C-48.4876 35.0676 -48.8431 34.8784 -49.1643 34.6719C-49.6001 34.3737 -50.0302 33.9723 -50.4545 33.4677C-50.8674 32.963 -51.2459 32.401 -51.59 31.7817C-51.9226 31.1623 -52.1921 30.5086 -52.3986 29.8204C-52.605 29.1208 -52.7082 28.4269 -52.7082 27.7388Z" fill="#202020"/>
<path d="M-34.3001 35.6181C-34.3001 35.5723 -34.2657 35.5034 -34.1969 35.4117C-34.1395 35.3199 -34.0478 35.2741 -33.9216 35.2741C-33.7381 35.2741 -33.5431 35.2454 -33.3367 35.188C-33.1188 35.1307 -32.9123 35.0447 -32.7174 34.93C-32.5109 34.8038 -32.3217 34.649 -32.1496 34.4655C-31.9661 34.2705 -31.8113 34.0411 -31.6851 33.7773L-27.1261 22.9733C-27.1146 22.9504 -27.0917 22.8988 -27.0573 22.8185C-27.0114 22.7267 -26.9885 22.6522 -26.9885 22.5948C-26.9885 22.4687 -27.0172 22.3425 -27.0745 22.2163C-27.1318 22.0902 -27.2007 21.9755 -27.2809 21.8723C-27.3498 21.7576 -27.4128 21.6601 -27.4702 21.5798C-27.5275 21.488 -27.5562 21.4078 -27.5562 21.3389C-27.5562 21.2242 -27.5161 21.1325 -27.4358 21.0637C-27.3555 20.9949 -27.2637 20.9432 -27.1605 20.9088C-27.0458 20.863 -26.9254 20.8343 -26.7992 20.8228C-26.6731 20.8114 -26.5641 20.7941 -26.4724 20.7712C-26.3691 20.7253 -26.2544 20.6508 -26.1283 20.5476C-26.0021 20.4329 -25.8989 20.3411 -25.8186 20.2723C-25.7842 20.215 -25.7555 20.1404 -25.7326 20.0486C-25.7097 19.9569 -25.6867 19.8709 -25.6638 19.7906C-25.6294 19.7103 -25.5892 19.6415 -25.5434 19.5841C-25.486 19.5268 -25.4115 19.4981 -25.3197 19.4981C-25.0903 19.4981 -24.9527 19.5956 -24.9068 19.7906L-19.9865 34.5171C-19.9177 34.735 -19.8431 34.907 -19.7629 35.0332C-19.6711 35.1479 -19.5621 35.2339 -19.436 35.2913C-19.3098 35.3486 -19.1722 35.383 -19.0231 35.3945C-18.8625 35.406 -18.679 35.4117 -18.4726 35.4117H-17.8532C-17.75 35.4117 -17.6697 35.4232 -17.6124 35.4461C-17.555 35.4461 -17.4919 35.4862 -17.4231 35.5665C-17.3428 35.6468 -17.3027 35.7156 -17.3027 35.773C-17.3027 35.9565 -17.4059 36.054 -17.6124 36.0654C-17.6353 36.0884 -17.7156 36.0998 -17.8532 36.0998H-18.8338C-19.1665 36.0998 -19.5507 36.0826 -19.9865 36.0482C-20.4223 36.0024 -20.8582 35.9794 -21.294 35.9794C-22.0051 35.9794 -22.6932 36.0024 -23.3585 36.0482C-24.0237 36.0826 -24.6143 36.0998 -25.1305 36.0998C-25.1878 36.0998 -25.2509 36.0884 -25.3197 36.0654C-25.377 36.0425 -25.4057 35.9966 -25.4057 35.9278C-25.4057 35.859 -25.377 35.7902 -25.3197 35.7214C-25.2624 35.6525 -25.1935 35.5895 -25.1133 35.5321C-25.033 35.4633 -24.947 35.4117 -24.8552 35.3773C-24.752 35.3429 -24.6602 35.3257 -24.5799 35.3257C-24.4652 35.3257 -24.3506 35.3314 -24.2359 35.3429C-24.1212 35.3543 -23.995 35.3601 -23.8574 35.3601C-23.4904 35.3601 -23.1922 35.3199 -22.9628 35.2397C-22.7678 35.1708 -22.6703 35.0332 -22.6703 34.8268C-22.6703 34.8038 -22.676 34.7752 -22.6875 34.7407C-22.699 34.7063 -22.7105 34.6547 -22.7219 34.5859C-22.7678 34.4827 -22.8423 34.2934 -22.9456 34.0182C-23.0488 33.7315 -23.1578 33.4218 -23.2724 33.0892C-23.3871 32.7566 -23.5018 32.4354 -23.6165 32.1258C-23.7197 31.8161 -23.8 31.5752 -23.8574 31.4032C-23.9033 31.3 -23.9549 31.2025 -24.0122 31.1107C-24.0581 31.0075 -24.1441 30.9559 -24.2703 30.9559H-29.1046C-29.3913 30.9559 -29.5748 31.0935 -29.6551 31.3688L-30.3432 33.8633C-30.3662 33.9436 -30.3834 34.0124 -30.3948 34.0698C-30.4063 34.1271 -30.412 34.2074 -30.412 34.3106C-30.412 34.4942 -30.4006 34.6433 -30.3776 34.7579C-30.3432 34.8612 -30.2974 34.9472 -30.24 35.016C-30.1712 35.0848 -30.0852 35.1364 -29.9819 35.1708C-29.8673 35.1938 -29.7239 35.2167 -29.5519 35.2397C-29.4945 35.2397 -29.4028 35.2511 -29.2766 35.2741C-29.139 35.2855 -28.9956 35.3027 -28.8465 35.3257C-28.6974 35.3486 -28.5598 35.3716 -28.4336 35.3945C-28.296 35.406 -28.1985 35.4117 -28.1411 35.4117C-28.0838 35.4346 -28.0035 35.492 -27.9003 35.5837C-27.7856 35.664 -27.7282 35.7558 -27.7282 35.859C-27.7282 35.9163 -27.7512 35.9737 -27.7971 36.031C-27.8429 36.0769 -27.929 36.0998 -28.0551 36.0998H-28.5884C-28.7719 36.0998 -29.0243 36.0941 -29.3454 36.0826C-29.6551 36.0712 -29.9705 36.0654 -30.2916 36.0654C-30.6013 36.0654 -30.974 36.0712 -31.4099 36.0826C-31.8457 36.0941 -32.293 36.0998 -32.7518 36.0998C-32.8091 36.0998 -32.9238 36.0941 -33.0958 36.0826C-33.2679 36.0597 -33.4457 36.031 -33.6292 35.9966C-33.8012 35.9507 -33.956 35.8991 -34.0937 35.8418C-34.2313 35.773 -34.3001 35.6984 -34.3001 35.6181ZM-28.9841 29.4248C-28.9956 29.4477 -29.0013 29.5108 -29.0013 29.614V29.7C-29.0013 29.8262 -28.9669 29.9351 -28.8981 30.0269C-28.8178 30.1072 -28.7146 30.1473 -28.5884 30.1473C-27.8888 30.1473 -27.2293 30.176 -26.61 30.2333C-25.9792 30.2792 -25.3713 30.3021 -24.7864 30.3021C-24.6602 30.3021 -24.5627 30.2677 -24.4939 30.1989C-24.4251 30.1186 -24.3907 30.0441 -24.3907 29.9753V29.786C-24.3907 29.7631 -24.3964 29.7402 -24.4079 29.7172C-24.4308 29.6828 -24.448 29.6255 -24.4595 29.5452L-26.3003 24.3152C-26.3921 24.0744 -26.501 23.9539 -26.6272 23.9539C-26.6845 23.9539 -26.7476 23.9769 -26.8164 24.0227C-26.8853 24.0686 -26.9311 24.1145 -26.9541 24.1604L-28.9841 29.4248Z" fill="#202020"/>
<path d="M-4.67507 35.945C-5.29441 35.945 -5.88508 35.9737 -6.44707 36.031C-7.00906 36.0769 -7.6284 36.0998 -8.30509 36.0998H-8.99324C-9.09646 36.0998 -9.17101 36.0368 -9.21689 35.9106C-9.26277 35.773 -9.28571 35.6698 -9.28571 35.6009C-9.28571 35.4862 -9.27424 35.3888 -9.2513 35.3085C-9.21689 35.2167 -9.15954 35.1651 -9.07926 35.1536C-8.9531 35.1192 -8.804 35.0906 -8.63196 35.0676C-8.45992 35.0447 -8.28215 35.0275 -8.09864 35.016C-7.91513 34.9931 -7.74309 34.9816 -7.58252 34.9816C-7.41048 34.9701 -7.26138 34.9644 -7.13522 34.9644C-6.85996 34.9644 -6.59617 34.9013 -6.34385 34.7752C-6.08005 34.649 -5.86787 34.4942 -5.7073 34.3106C-5.59261 34.1615 -5.49512 34.0182 -5.41484 33.8806C-5.33455 33.7315 -5.26574 33.5307 -5.20839 33.2784C-5.13957 33.0261 -5.08796 32.6992 -5.05356 32.2978C-5.00768 31.8964 -4.9618 31.3688 -4.91592 30.715L-4.10734 15.9541C-4.10734 15.5986 -4.14749 15.243 -4.22777 14.8875C-4.30805 14.5205 -4.43995 14.1821 -4.62346 13.8725C-4.7955 13.5513 -5.02488 13.2761 -5.31161 13.0467C-5.59834 12.8173 -5.94816 12.6567 -6.36105 12.565C-6.39546 12.5535 -6.48721 12.542 -6.63631 12.5306C-6.78541 12.5076 -6.94598 12.4847 -7.11802 12.4617C-7.29006 12.4388 -7.45063 12.4216 -7.59973 12.4101C-7.74883 12.3872 -7.84632 12.3757 -7.89219 12.3757C-8.12158 12.3298 -8.30509 12.284 -8.44272 12.2381C-8.56888 12.1922 -8.63196 12.0489 -8.63196 11.808C-8.63196 11.7048 -8.62622 11.6073 -8.61475 11.5155C-8.60329 11.4123 -8.55741 11.3607 -8.47712 11.3607H-7.77177C-7.47357 11.3607 -7.1983 11.3722 -6.94598 11.3951C-6.68219 11.418 -6.4184 11.4467 -6.1546 11.4811C-5.89081 11.5155 -5.61555 11.5442 -5.32882 11.5671C-5.03062 11.5901 -4.70374 11.6016 -4.3482 11.6016H-2.71383C-2.51885 11.6016 -2.34108 11.5901 -2.18051 11.5671C-2.00847 11.5327 -1.78482 11.5155 -1.50956 11.5155C-1.30311 11.5155 -1.0852 11.5442 -0.855814 11.6016C-0.626429 11.6474 -0.460125 11.7507 -0.356902 11.9112C-0.161925 12.1406 0.00437926 12.3987 0.14201 12.6854C0.279641 12.9607 0.400068 13.2531 0.503291 13.5628L6.28379 28.771C6.32967 28.8857 6.37554 28.9832 6.42142 29.0635C6.4673 29.1323 6.51891 29.1667 6.57625 29.1667C6.65654 29.1667 6.71962 29.1208 6.7655 29.0291C6.81137 28.9373 6.84578 28.8513 6.86872 28.771L13.3718 11.722C13.4406 11.5958 13.5381 11.5155 13.6642 11.4811C13.8019 11.4467 13.951 11.4295 14.1115 11.4295C14.685 11.4295 15.2355 11.418 15.7631 11.3951C16.3022 11.3722 16.8355 11.3435 17.3631 11.3091C17.9021 11.2747 18.4412 11.246 18.9802 11.2231C19.5308 11.2001 20.11 11.1887 20.7178 11.1887C20.7522 11.1887 20.7981 11.1887 20.8555 11.1887C20.9243 11.1887 20.9874 11.2001 21.0447 11.2231C21.1135 11.2345 21.1709 11.2575 21.2167 11.2919C21.2626 11.3263 21.2856 11.3722 21.2856 11.4295C21.2856 11.5901 21.2167 11.7564 21.0791 11.9284C20.9415 12.089 20.7694 12.1693 20.563 12.1693C19.9895 12.1693 19.5136 12.2381 19.1351 12.3757C18.7566 12.5134 18.3724 12.7944 17.9824 13.2187C17.8104 13.3908 17.6727 13.5857 17.5695 13.8036C17.4663 14.0216 17.3803 14.2567 17.3115 14.509C17.2541 14.7499 17.214 15.0022 17.191 15.266C17.1796 15.5183 17.1738 15.7649 17.1738 16.0057L17.4491 34.3795C17.5294 34.6203 17.7244 34.7866 18.034 34.8784C18.3437 34.9701 18.6878 35.0332 19.0663 35.0676C19.4447 35.0906 19.8118 35.1135 20.1673 35.1364C20.5343 35.1479 20.8153 35.1995 21.0103 35.2913C21.1479 35.3486 21.2282 35.4232 21.2511 35.5149C21.2741 35.5952 21.2856 35.6698 21.2856 35.7386C21.2856 35.9221 21.1881 36.0368 20.9931 36.0826C20.8096 36.1171 20.5573 36.1343 20.2361 36.1343C19.8691 36.1343 19.525 36.1285 19.2039 36.1171C18.8827 36.1056 18.5616 36.0998 18.2405 36.0998C17.9308 36.0884 17.6039 36.0769 17.2599 36.0654C16.9158 36.054 16.5316 36.0482 16.1072 36.0482H13.475C13.1424 36.0482 12.8213 36.054 12.5116 36.0654C12.2019 36.0654 11.8922 36.0769 11.5826 36.0998C11.2156 36.1343 10.8485 36.1515 10.4815 36.1515C10.3898 36.1515 10.2923 36.1457 10.1891 36.1343C10.0973 36.1343 10.0056 36.1171 9.9138 36.0826C9.83352 36.0482 9.7647 35.9966 9.70736 35.9278C9.66148 35.8475 9.63854 35.7443 9.63854 35.6181C9.63854 35.3888 9.78191 35.2397 10.0686 35.1708C10.3554 35.0906 10.6994 35.0504 11.1009 35.0504H11.8234C12.0643 35.0504 12.2879 35.0447 12.4944 35.0332C12.7123 35.0217 12.9015 34.9873 13.0621 34.93C13.2227 34.8726 13.3488 34.7924 13.4406 34.6891C13.5438 34.5744 13.5954 34.4196 13.5954 34.2246L13.3718 15.9541C13.3718 15.8968 13.3603 15.8165 13.3374 15.7133C13.3144 15.6101 13.2743 15.5584 13.2169 15.5584C13.1367 15.5584 13.0736 15.5756 13.0277 15.6101C12.9933 15.633 12.9646 15.6559 12.9417 15.6789L5.23435 35.7386C5.18848 35.9221 5.11966 36.0138 5.02791 36.0138C4.93615 36.0138 4.85587 35.9221 4.78705 35.7386L-2.88587 15.5068C-2.92028 15.3692 -2.98909 15.3004 -3.09232 15.3004C-3.13819 15.3004 -3.17833 15.3119 -3.21274 15.3348C-3.23568 15.3577 -3.24715 15.4151 -3.24715 15.5068L-3.69445 31.9365C-3.69445 32.0741 -3.68872 32.2577 -3.67725 32.487C-3.65431 32.705 -3.62564 32.9343 -3.59123 33.1752C-3.54535 33.416 -3.49374 33.6512 -3.43639 33.8806C-3.36758 34.1099 -3.28156 34.3049 -3.17833 34.4655C-3.02923 34.7063 -2.80558 34.8841 -2.50738 34.9988C-2.19771 35.102 -1.87084 35.1766 -1.52676 35.2225C-1.17122 35.2569 -0.821406 35.2798 -0.477329 35.2913C-0.121782 35.3027 0.176418 35.3257 0.417272 35.3601C0.554903 35.3716 0.646657 35.4232 0.692534 35.5149C0.74988 35.6067 0.778553 35.7042 0.778553 35.8074C0.778553 35.8762 0.738411 35.9335 0.658126 35.9794C0.58931 36.0253 0.497557 36.0654 0.382864 36.0998C0.279641 36.1228 0.159214 36.1343 0.0215831 36.1343C-0.116048 36.1457 -0.242209 36.1515 -0.356902 36.1515C-0.781264 36.1515 -1.17695 36.14 -1.54397 36.1171C-1.91098 36.0941 -2.26653 36.0712 -2.61061 36.0482C-2.95468 36.0253 -3.29303 36.0024 -3.62564 35.9794C-3.95824 35.9565 -4.30805 35.945 -4.67507 35.945Z" fill="#202020"/>
<path d="M29.1133 20.5648V34.0526C29.1133 34.1099 29.119 34.196 29.1305 34.3106C29.142 34.4253 29.1592 34.5458 29.1821 34.6719C29.2165 34.7866 29.2624 34.8898 29.3198 34.9816C29.3771 35.0734 29.4574 35.1192 29.5606 35.1192H31.453C31.5792 35.1192 31.6824 35.1708 31.7627 35.2741C31.8545 35.3773 31.9003 35.492 31.9003 35.6181C31.9003 35.7214 31.8487 35.8303 31.7455 35.945C31.6423 36.0482 31.5391 36.0998 31.4358 36.0998H26.0338C25.8044 36.0998 25.575 36.1056 25.3457 36.1171C25.1163 36.14 24.864 36.1515 24.5887 36.1515C24.4281 36.1515 24.2733 36.1457 24.1242 36.1343C23.9751 36.1228 23.8375 36.0998 23.7113 36.0654C23.6425 36.0196 23.6081 35.9106 23.6081 35.7386C23.6081 35.4977 23.6654 35.3601 23.7801 35.3257C24.0668 35.2798 24.3134 35.2454 24.5199 35.2225C24.7263 35.188 24.9442 35.1708 25.1736 35.1708C25.3571 35.1708 25.4833 35.1708 25.5521 35.1708C25.6324 35.1594 25.7241 35.1422 25.8274 35.1192C25.9879 35.0504 26.0682 34.8096 26.0682 34.3967V20.6852C26.0682 20.5476 25.9994 20.4271 25.8618 20.3239C25.7356 20.2092 25.6095 20.1519 25.4833 20.1519C25.2195 20.1519 25.0131 20.1748 24.864 20.2207C24.7263 20.2551 24.5428 20.2723 24.3134 20.2723C24.1643 20.2723 24.0152 20.2608 23.8661 20.2379C23.717 20.2035 23.5679 20.1633 23.4188 20.1175C23.3385 20.0831 23.2984 20.0142 23.2984 19.911C23.264 19.7619 23.2755 19.6415 23.3328 19.5497C23.4016 19.458 23.4934 19.3892 23.6081 19.3433C23.7228 19.2859 23.8489 19.2515 23.9866 19.2401C24.1357 19.2286 24.2733 19.2229 24.3995 19.2229H30.5928C30.891 19.2229 31.0803 19.2229 31.1606 19.2229C31.2409 19.2229 31.2925 19.2343 31.3154 19.2573C31.5333 19.2917 31.6423 19.4178 31.6423 19.6358C31.6423 19.8766 31.5104 20.0314 31.2466 20.1003C30.9828 20.1691 30.6903 20.2092 30.3692 20.2207C30.0595 20.2322 29.7728 20.2551 29.509 20.2895C29.2452 20.3124 29.1133 20.4042 29.1133 20.5648Z" fill="#202020"/>
<path d="M34.2401 35.773C34.2401 35.5092 34.3548 35.3601 34.5841 35.3257H35.2379C35.4443 35.3257 35.6336 35.3257 35.8056 35.3257C35.9777 35.3142 36.1268 35.2913 36.2529 35.2569C36.3791 35.2225 36.4766 35.1651 36.5454 35.0848C36.6257 35.0045 36.6658 34.8956 36.6658 34.7579V20.8916C36.6658 20.7655 36.6142 20.6623 36.511 20.582C36.4077 20.4902 36.2931 20.4443 36.1669 20.4443H34.6185C34.5612 20.4443 34.4924 20.4386 34.4121 20.4271C34.3318 20.4157 34.2401 20.4042 34.1368 20.3927C34.0795 20.3698 34.0279 20.3239 33.982 20.2551C33.9476 20.1863 33.9304 20.1232 33.9304 20.0659C33.9304 19.8479 34.068 19.739 34.3433 19.739H38.5754C38.6098 19.739 38.6959 19.7332 38.8335 19.7218C38.9826 19.7103 39.1374 19.6988 39.298 19.6874C39.4586 19.6759 39.6019 19.6644 39.7281 19.653C39.8543 19.6415 39.9288 19.6358 39.9517 19.6358C40.1123 19.6243 40.2901 19.6128 40.4851 19.6013C40.6915 19.5899 40.8578 19.5841 40.984 19.5841C41.0184 19.5841 41.0815 19.5899 41.1732 19.6013C41.265 19.6013 41.3625 19.6071 41.4657 19.6186C41.5689 19.6186 41.6664 19.6243 41.7581 19.6358C41.8614 19.6358 41.9302 19.6358 41.9646 19.6358C42.1252 19.6702 42.2054 19.7619 42.2054 19.911C42.2054 20.0372 42.1653 20.1633 42.085 20.2895C42.0162 20.3698 41.9072 20.4099 41.7581 20.4099H39.8657C39.7854 20.4099 39.7224 20.4558 39.6765 20.5476C39.6306 20.6278 39.5905 20.7311 39.5561 20.8572C39.5331 20.9719 39.5159 21.0923 39.5044 21.2185C39.5044 21.3447 39.5044 21.4536 39.5044 21.5454C39.5044 22.1418 39.5331 22.7382 39.5905 23.3346C39.6478 23.9195 39.6765 24.5905 39.6765 25.3474V34.844C39.6765 34.9243 39.6937 35.0217 39.7281 35.1364C39.774 35.2397 39.8485 35.2913 39.9517 35.2913H45.457C45.7666 35.2913 46.0591 35.1536 46.3344 34.8784C46.6096 34.6031 46.862 34.282 47.0913 33.915C47.3322 33.5479 47.5386 33.1867 47.7107 32.8311C47.8942 32.4641 48.0433 32.1946 48.158 32.0225C48.2268 31.9422 48.2956 31.9021 48.3644 31.9021C48.4218 31.9021 48.4734 31.9537 48.5193 32.0569C48.5651 32.2175 48.5881 32.3609 48.5881 32.487C48.5995 32.6017 48.6053 32.7738 48.6053 33.0032C48.6053 33.0949 48.5881 33.2325 48.5537 33.416C48.5307 33.5881 48.4963 33.7716 48.4504 33.9666C48.416 34.1615 48.3816 34.3508 48.3472 34.5343C48.3243 34.7063 48.3128 34.844 48.3128 34.9472C48.3128 35.0045 48.3128 35.0848 48.3128 35.188C48.3128 35.2798 48.3071 35.3773 48.2956 35.4805C48.2956 35.5837 48.2899 35.6812 48.2784 35.773C48.2669 35.8533 48.2497 35.9106 48.2268 35.945C48.0662 36.0482 47.9229 36.0998 47.7967 36.0998C46.363 36.0998 44.8319 36.0884 43.2033 36.0654C41.5746 36.031 39.9517 36.0138 38.3346 36.0138C38.0478 36.0138 37.7496 36.0196 37.44 36.031C37.1303 36.0425 36.8321 36.0597 36.5454 36.0826C36.2586 36.0941 35.9834 36.1056 35.7196 36.1171C35.4673 36.1285 35.2494 36.1343 35.0658 36.1343C34.825 36.1343 34.6243 36.1228 34.4637 36.0998C34.3146 36.0654 34.2401 35.9565 34.2401 35.773Z" fill="#202020"/>
<path d="M50.3773 35.773C50.3773 35.5092 50.492 35.3601 50.7214 35.3257H51.3751C51.5816 35.3257 51.7708 35.3257 51.9428 35.3257C52.1149 35.3142 52.264 35.2913 52.3901 35.2569C52.5163 35.2225 52.6138 35.1651 52.6826 35.0848C52.7629 35.0045 52.803 34.8956 52.803 34.7579V20.8916C52.803 20.7655 52.7514 20.6623 52.6482 20.582C52.545 20.4902 52.4303 20.4443 52.3041 20.4443H50.7558C50.6984 20.4443 50.6296 20.4386 50.5493 20.4271C50.469 20.4157 50.3773 20.4042 50.2741 20.3927C50.2167 20.3698 50.1651 20.3239 50.1192 20.2551C50.0848 20.1863 50.0676 20.1232 50.0676 20.0659C50.0676 19.8479 50.2052 19.739 50.4805 19.739H54.7127C54.7471 19.739 54.8331 19.7332 54.9707 19.7218C55.1198 19.7103 55.2746 19.6988 55.4352 19.6874C55.5958 19.6759 55.7392 19.6644 55.8653 19.653C55.9915 19.6415 56.066 19.6358 56.089 19.6358C56.2495 19.6243 56.4273 19.6128 56.6223 19.6013C56.8287 19.5899 56.995 19.5841 57.1212 19.5841C57.1556 19.5841 57.2187 19.5899 57.3104 19.6013C57.4022 19.6013 57.4997 19.6071 57.6029 19.6186C57.7061 19.6186 57.8036 19.6243 57.8954 19.6358C57.9986 19.6358 58.0674 19.6358 58.1018 19.6358C58.2624 19.6702 58.3427 19.7619 58.3427 19.911C58.3427 20.0372 58.3025 20.1633 58.2222 20.2895C58.1534 20.3698 58.0445 20.4099 57.8954 20.4099H56.0029C55.9227 20.4099 55.8596 20.4558 55.8137 20.5476C55.7678 20.6278 55.7277 20.7311 55.6933 20.8572C55.6703 20.9719 55.6531 21.0923 55.6417 21.2185C55.6417 21.3447 55.6417 21.4536 55.6417 21.5454C55.6417 22.1418 55.6703 22.7382 55.7277 23.3346C55.785 23.9195 55.8137 24.5905 55.8137 25.3474V34.844C55.8137 34.9243 55.8309 35.0217 55.8653 35.1364C55.9112 35.2397 55.9857 35.2913 56.089 35.2913H61.5942C61.9039 35.2913 62.1963 35.1536 62.4716 34.8784C62.7469 34.6031 62.9992 34.282 63.2286 33.915C63.4694 33.5479 63.6759 33.1867 63.8479 32.8311C64.0314 32.4641 64.1805 32.1946 64.2952 32.0225C64.364 31.9422 64.4328 31.9021 64.5017 31.9021C64.559 31.9021 64.6106 31.9537 64.6565 32.0569C64.7024 32.2175 64.7253 32.3609 64.7253 32.487C64.7368 32.6017 64.7425 32.7738 64.7425 33.0032C64.7425 33.0949 64.7253 33.2325 64.6909 33.416C64.668 33.5881 64.6335 33.7716 64.5877 33.9666C64.5533 34.1615 64.5189 34.3508 64.4844 34.5343C64.4615 34.7063 64.45 34.844 64.45 34.9472C64.45 35.0045 64.45 35.0848 64.45 35.188C64.45 35.2798 64.4443 35.3773 64.4328 35.4805C64.4328 35.5837 64.4271 35.6812 64.4156 35.773C64.4042 35.8533 64.387 35.9106 64.364 35.945C64.2035 36.0482 64.0601 36.0998 63.9339 36.0998C62.5003 36.0998 60.9691 36.0884 59.3405 36.0654C57.7119 36.031 56.089 36.0138 54.4718 36.0138C54.1851 36.0138 53.8869 36.0196 53.5772 36.031C53.2675 36.0425 52.9693 36.0597 52.6826 36.0826C52.3959 36.0941 52.1206 36.1056 51.8568 36.1171C51.6045 36.1285 51.3866 36.1343 51.2031 36.1343C50.9622 36.1343 50.7615 36.1228 50.6009 36.0998C50.4518 36.0654 50.3773 35.9565 50.3773 35.773Z" fill="#202020"/>
<path d="M72.0541 20.5648V34.0526C72.0541 34.1099 72.0599 34.196 72.0713 34.3106C72.0828 34.4253 72.1 34.5458 72.123 34.6719C72.1574 34.7866 72.2032 34.8898 72.2606 34.9816C72.3179 35.0734 72.3982 35.1192 72.5014 35.1192H74.3939C74.52 35.1192 74.6233 35.1708 74.7035 35.2741C74.7953 35.3773 74.8412 35.492 74.8412 35.6181C74.8412 35.7214 74.7896 35.8303 74.6863 35.945C74.5831 36.0482 74.4799 36.0998 74.3767 36.0998H68.9747C68.7453 36.0998 68.5159 36.1056 68.2865 36.1171C68.0571 36.14 67.8048 36.1515 67.5295 36.1515C67.369 36.1515 67.2141 36.1457 67.065 36.1343C66.9159 36.1228 66.7783 36.0998 66.6521 36.0654C66.5833 36.0196 66.5489 35.9106 66.5489 35.7386C66.5489 35.4977 66.6063 35.3601 66.7209 35.3257C67.0077 35.2798 67.2543 35.2454 67.4607 35.2225C67.6672 35.188 67.8851 35.1708 68.1145 35.1708C68.298 35.1708 68.4241 35.1708 68.4929 35.1708C68.5732 35.1594 68.665 35.1422 68.7682 35.1192C68.9288 35.0504 69.0091 34.8096 69.0091 34.3967V20.6852C69.0091 20.5476 68.9402 20.4271 68.8026 20.3239C68.6765 20.2092 68.5503 20.1519 68.4241 20.1519C68.1603 20.1519 67.9539 20.1748 67.8048 20.2207C67.6672 20.2551 67.4837 20.2723 67.2543 20.2723C67.1052 20.2723 66.9561 20.2608 66.807 20.2379C66.6579 20.2035 66.5088 20.1633 66.3597 20.1175C66.2794 20.0831 66.2392 20.0142 66.2392 19.911C66.2048 19.7619 66.2163 19.6415 66.2736 19.5497C66.3425 19.458 66.4342 19.3892 66.5489 19.3433C66.6636 19.2859 66.7898 19.2515 66.9274 19.2401C67.0765 19.2286 67.2141 19.2229 67.3403 19.2229H73.5337C73.8319 19.2229 74.0211 19.2229 74.1014 19.2229C74.1817 19.2229 74.2333 19.2343 74.2562 19.2573C74.4742 19.2917 74.5831 19.4178 74.5831 19.6358C74.5831 19.8766 74.4512 20.0314 74.1874 20.1003C73.9236 20.1691 73.6312 20.2092 73.31 20.2207C73.0004 20.2322 72.7136 20.2551 72.4498 20.2895C72.186 20.3124 72.0541 20.4042 72.0541 20.5648Z" fill="#202020"/>
<path d="M76.9744 27.9968C76.9744 27.3201 77.0375 26.7065 77.1637 26.156C77.2899 25.594 77.4791 25.0722 77.7314 24.5905C77.9837 24.1088 78.2934 23.6557 78.6604 23.2314C79.0389 22.7955 79.469 22.3712 79.9507 21.9583C80.3292 21.6371 80.7364 21.3733 81.1722 21.1669C81.608 20.9605 82.0553 20.7999 82.5141 20.6852C82.9843 20.559 83.466 20.473 83.9592 20.4271C84.4524 20.3813 84.9398 20.3583 85.4215 20.3583C85.8344 20.3583 86.2703 20.4214 86.729 20.5476C87.1993 20.6737 87.6523 20.84 88.0881 21.0465C88.524 21.2414 88.9254 21.4594 89.2924 21.7002C89.6594 21.9296 89.9634 22.1533 90.2042 22.3712C91.0415 23.1625 91.6895 24.0227 92.1483 24.9517C92.607 25.8693 92.8364 26.8786 92.8364 27.9796C92.8364 28.576 92.7905 29.1266 92.6988 29.6312C92.6185 30.1244 92.4923 30.5889 92.3203 31.0247C92.1597 31.4605 91.9533 31.8734 91.701 32.2634C91.4601 32.6533 91.1791 33.0376 90.858 33.416C90.5598 33.7487 90.2042 34.0755 89.7913 34.3967C89.3899 34.7178 88.9426 35.0045 88.4494 35.2569C87.9562 35.5092 87.4229 35.7156 86.8495 35.8762C86.2875 36.0253 85.7025 36.0998 85.0947 36.0998C84.051 36.0998 83.0876 35.9622 82.2044 35.687C81.3328 35.4002 80.5184 34.9013 79.7615 34.1902C77.9035 32.5731 76.9744 30.5086 76.9744 27.9968ZM84.9398 21.0981C84.4237 21.0981 83.9822 21.1554 83.6151 21.2701C83.2596 21.3733 82.9385 21.5282 82.6517 21.7346C82.3765 21.9296 82.1241 22.1705 81.8948 22.4572C81.6654 22.7439 81.4302 23.0651 81.1894 23.4206C80.7536 24.0973 80.4668 24.8199 80.3292 25.5883C80.1916 26.3453 80.1228 27.1137 80.1228 27.8936C80.1228 28.7882 80.2088 29.6828 80.3808 30.5774C80.5643 31.4605 80.9141 32.3207 81.4302 33.158C81.5679 33.3988 81.7629 33.6512 82.0152 33.915C82.2675 34.1673 82.5428 34.4024 82.841 34.6203C83.1392 34.8268 83.4431 35.0045 83.7528 35.1536C84.0739 35.2913 84.3721 35.3601 84.6474 35.3601C85.1864 35.3601 85.6567 35.2683 86.0581 35.0848C86.471 34.9013 86.838 34.6605 87.1591 34.3623C87.4803 34.0526 87.7613 33.7028 88.0021 33.3128C88.2544 32.9114 88.4953 32.4985 88.7247 32.0741C89.0114 31.5122 89.2179 30.91 89.344 30.2677C89.4817 29.614 89.5505 28.9086 89.5505 28.1517C89.5505 27.6126 89.5103 27.108 89.43 26.6377C89.3612 26.1675 89.2465 25.7145 89.086 25.2786C88.9369 24.8428 88.7476 24.4184 88.5182 24.0055C88.2889 23.5812 88.0193 23.1511 87.7097 22.7152C87.4 22.245 87.0043 21.8608 86.5226 21.5626C86.0524 21.2529 85.5248 21.0981 84.9398 21.0981Z" fill="#202020"/>
<path d="M96.432 36.0998C96.3173 36.0998 96.1912 36.0941 96.0535 36.0826C95.9159 36.0712 95.784 36.0482 95.6578 36.0138C95.5431 35.968 95.4457 35.9049 95.3654 35.8246C95.2851 35.7443 95.2449 35.6353 95.2449 35.4977C95.2449 35.3945 95.2507 35.3027 95.2622 35.2225C95.2851 35.1422 95.3482 35.0791 95.4514 35.0332C95.8184 34.9759 96.1223 34.9357 96.3632 34.9128C96.6155 34.8898 96.8277 34.8382 96.9997 34.7579C97.1718 34.6777 97.3094 34.54 97.4126 34.3451C97.5273 34.1386 97.6248 33.8289 97.7051 33.416C97.7051 32.4412 97.7108 31.4376 97.7223 30.4054C97.7452 29.3731 97.7797 28.3753 97.8255 27.4119C97.8485 26.7123 97.9058 26.0356 97.9976 25.3818C98.1008 24.7166 98.1524 24.0342 98.1524 23.3346C98.1524 23.2084 98.1467 23.1167 98.1352 23.0593C98.1237 23.002 98.0893 22.893 98.032 22.7324C97.9976 22.6751 97.9288 22.5719 97.8255 22.4228C97.7223 22.2622 97.6076 22.1016 97.4814 21.9411C97.3553 21.769 97.2291 21.6085 97.103 21.4594C96.9883 21.2988 96.9023 21.1898 96.8449 21.1325C96.7302 20.9949 96.5639 20.8859 96.346 20.8056C96.1281 20.7139 95.9102 20.6278 95.6922 20.5476C95.4858 20.4558 95.3023 20.3583 95.1417 20.2551C94.9926 20.1404 94.9181 19.9856 94.9181 19.7906C94.9181 19.6874 94.9525 19.6071 95.0213 19.5497C95.1016 19.4809 95.1933 19.4293 95.2966 19.3949C95.4113 19.3605 95.5202 19.3376 95.6234 19.3261C95.7381 19.3146 95.8299 19.3089 95.8987 19.3089C95.9216 19.3089 95.9675 19.3146 96.0363 19.3261C96.1051 19.3376 96.1797 19.3548 96.26 19.3777C96.3403 19.3892 96.4148 19.4006 96.4836 19.4121C96.5524 19.4236 96.6041 19.4293 96.6385 19.4293H98.4621C98.5194 19.4522 98.6112 19.5039 98.7373 19.5841C98.8635 19.653 98.9495 19.7103 98.9954 19.7562C99.8671 20.7081 100.722 21.6429 101.559 22.5604C102.396 23.478 103.222 24.384 104.036 25.2786C104.862 26.1732 105.682 27.0621 106.496 27.9452C107.322 28.8284 108.154 29.723 108.991 30.629C109.048 30.6864 109.1 30.738 109.146 30.7839C109.192 30.8183 109.237 30.8527 109.283 30.8871C109.329 30.91 109.369 30.9215 109.404 30.9215C109.507 30.9215 109.587 30.8756 109.645 30.7839C109.702 30.6806 109.731 30.6176 109.731 30.5946V24.969C109.731 24.5675 109.719 24.1604 109.696 23.7475C109.685 23.3346 109.662 22.9504 109.627 22.5948C109.593 22.2278 109.547 21.9009 109.49 21.6142C109.432 21.3275 109.364 21.1153 109.283 20.9777C109.123 20.7139 108.876 20.5304 108.544 20.4271C108.211 20.3239 107.878 20.2494 107.546 20.2035C107.213 20.1461 106.921 20.0888 106.668 20.0314C106.427 19.9741 106.307 19.8651 106.307 19.7046C106.307 19.3834 106.496 19.2229 106.875 19.2229H113.395C113.613 19.2229 113.722 19.3548 113.722 19.6186C113.722 19.7332 113.596 19.8307 113.343 19.911C113.091 19.9798 112.804 20.0716 112.483 20.1863C112.162 20.301 111.847 20.4501 111.537 20.6336C111.239 20.8171 111.038 21.0694 110.935 21.3905C110.809 21.6773 110.723 21.9869 110.677 22.3196C110.631 22.6522 110.608 23.1109 110.608 23.6959V35.7386C110.608 35.8418 110.568 35.9278 110.488 35.9966C110.407 36.0654 110.344 36.0998 110.298 36.0998C110.149 36.0998 109.983 35.9909 109.799 35.773C109.754 35.7156 109.604 35.5493 109.352 35.2741C109.111 34.9988 108.796 34.649 108.406 34.2246C108.016 33.8003 107.569 33.3186 107.064 32.7795C106.559 32.2404 106.032 31.6727 105.481 31.0763C104.931 30.4799 104.369 29.8721 103.795 29.2527C103.222 28.6334 102.671 28.037 102.144 27.4635C101.616 26.89 101.117 26.3567 100.647 25.8636C100.188 25.3589 99.7982 24.9288 99.4771 24.5733C99.3624 24.4815 99.2592 24.4356 99.1674 24.4356C98.9839 24.4356 98.8692 24.5503 98.8234 24.7797C98.7775 25.0091 98.7545 25.2499 98.7545 25.5023C98.7545 25.617 98.7545 25.789 98.7545 26.0184C98.766 26.2363 98.7775 26.4944 98.7889 26.7926C98.8004 27.0793 98.8119 27.389 98.8234 27.7216C98.8463 28.0427 98.8635 28.3581 98.875 28.6678C98.8864 28.966 98.8922 29.2412 98.8922 29.4936C98.9036 29.7459 98.9094 29.9466 98.9094 30.0957V30.9215C98.9094 31.1853 98.9094 31.4835 98.9094 31.8161C98.9208 32.1487 98.938 32.4756 98.961 32.7967C98.9954 33.1178 99.0355 33.4103 99.0814 33.6741C99.1388 33.9379 99.219 34.1386 99.3223 34.2762C99.437 34.4597 99.5861 34.5916 99.7696 34.6719C99.9531 34.7522 100.148 34.8096 100.354 34.844C100.561 34.8669 100.767 34.8841 100.974 34.8956C101.192 34.8956 101.381 34.9128 101.542 34.9472C101.714 34.9816 101.851 35.0504 101.954 35.1536C102.058 35.2454 102.109 35.3945 102.109 35.6009C102.109 35.7042 102.098 35.7902 102.075 35.859C102.063 35.9163 102 35.9966 101.886 36.0998H96.432Z" fill="#202020"/>
</svg>
