<svg width="245" height="62" viewBox="0 0 245 62" fill="none" xmlns="http://www.w3.org/2000/svg">
<path d="M68.5494 39.717H65.3162V21.871H72.4799C74.4664 21.871 76.009 22.3676 77.1079 23.3608C78.2067 24.354 78.7562 25.8544 78.7562 27.8619C78.7562 29.6159 78.1856 30.9895 77.0445 31.9827C75.9245 32.9759 74.403 33.4725 72.4799 33.4725H68.5494V39.717ZM72.0362 24.5019H68.5494V31.0951H72.0362C73.1773 31.0951 74.0965 30.8204 74.7939 30.271C75.4913 29.7216 75.8399 28.8974 75.8399 27.7985C75.8399 26.6785 75.4913 25.8544 74.7939 25.3261C74.1177 24.7767 73.1984 24.5019 72.0362 24.5019Z" fill="black"/>
<path d="M85.5727 40.034C83.7765 40.034 82.498 39.4212 81.7373 38.1955C80.9765 36.9699 80.5961 35.3638 80.5961 33.3774C80.5961 31.3699 80.9765 29.7533 81.7373 28.5276C82.5192 27.2808 83.7976 26.6574 85.5727 26.6574C86.5871 26.6574 87.3901 26.837 87.9818 27.1963C88.5735 27.5344 89.0173 27.9148 89.3131 28.3374C89.609 28.7601 89.7886 29.077 89.852 29.2884H89.9154V26.6891H93.2437V39.717H90.4543L89.9154 37.5933H89.852C89.7886 37.7834 89.5984 38.0793 89.2814 38.4808C88.9856 38.8612 88.5312 39.2204 87.9184 39.5585C87.3267 39.8755 86.5448 40.034 85.5727 40.034ZM86.9041 37.308C88.0875 37.308 88.8799 36.9382 89.2814 36.1985C89.7041 35.4378 89.9154 34.508 89.9154 33.4091C89.9154 32.2468 89.7041 31.3065 89.2814 30.588C88.8588 29.8695 88.0663 29.5102 86.9041 29.5102C86.0799 29.5102 85.4354 29.6899 84.9705 30.0491C84.5267 30.4084 84.2097 30.8838 84.0195 31.4755C83.8505 32.0461 83.7659 32.6906 83.7659 33.4091C83.7659 34.1276 83.8505 34.7827 84.0195 35.3744C84.2097 35.9661 84.5267 36.4416 84.9705 36.8008C85.4354 37.1389 86.0799 37.308 86.9041 37.308Z" fill="black"/>
<path d="M101.584 40.034C101.035 40.034 100.422 39.9389 99.7458 39.7487C99.0907 39.5585 98.4567 39.2733 97.8439 38.8929C97.2522 38.5125 96.7556 38.0265 96.3541 37.4348C95.9737 36.8219 95.7835 36.1034 95.7835 35.2793H98.7631C98.7631 35.3216 98.7737 35.4695 98.7948 35.7231C98.8159 35.9555 98.9005 36.2302 99.0484 36.5472C99.2175 36.8431 99.4922 37.1072 99.8726 37.3397C100.253 37.5721 100.802 37.6884 101.521 37.6884C102.366 37.6884 103 37.5404 103.423 37.2446C103.845 36.9276 104.057 36.5684 104.057 36.1668C104.057 35.7019 103.856 35.3427 103.454 35.0891C103.074 34.8144 102.577 34.5925 101.965 34.4234C101.352 34.2544 100.697 34.0853 99.9993 33.9163C99.3231 33.7261 98.6786 33.4831 98.0658 33.1872C97.4741 32.8914 96.988 32.4899 96.6076 31.9827C96.2273 31.4544 96.0371 30.7782 96.0371 29.954C96.0371 28.7495 96.5231 27.8408 97.4952 27.228C98.4673 26.594 99.7035 26.277 101.204 26.277C102.26 26.277 103.243 26.4461 104.152 26.7842C105.06 27.1012 105.79 27.6189 106.339 28.3374C106.888 29.0348 107.163 29.954 107.163 31.0951H104.183C104.205 30.4401 104.057 29.954 103.74 29.637C103.444 29.2989 103.063 29.0665 102.599 28.9397C102.155 28.8129 101.722 28.7495 101.299 28.7495C100.538 28.7495 99.9571 28.8868 99.5556 29.1616C99.1752 29.4151 98.985 29.7533 98.985 30.1759C98.985 30.6619 99.1752 31.0423 99.5556 31.317C99.9571 31.5706 100.464 31.7819 101.077 31.951C101.711 32.1201 102.366 32.2997 103.042 32.4899C103.74 32.6589 104.395 32.8914 105.008 33.1872C105.642 33.4831 106.149 33.8846 106.529 34.3918C106.931 34.8778 107.131 35.5329 107.131 36.357C107.131 37.6038 106.614 38.5336 105.578 39.1465C104.564 39.7382 103.233 40.034 101.584 40.034Z" fill="black"/>
<path d="M114.17 39.717C113.134 39.717 112.352 39.4635 111.824 38.9563C111.317 38.4491 111.063 37.625 111.063 36.4838V28.9714H109.098V26.6891C109.711 26.6891 110.186 26.6257 110.524 26.4989C110.862 26.3721 111.105 26.0763 111.253 25.6114C111.401 25.1465 111.475 24.3963 111.475 23.3608H114.075V26.6891H117.054V28.9714H114.075V37.1812H117.118V39.717H114.17Z" fill="black"/>
<path d="M126.052 40.034C124.551 40.034 123.326 39.717 122.375 39.0831C121.445 38.428 120.748 37.6038 120.283 36.6106C119.839 35.5963 119.606 34.5291 119.585 33.4091C119.564 32.0989 119.807 30.9367 120.314 29.9223C120.843 28.8868 121.582 28.0838 122.533 27.5133C123.505 26.9216 124.646 26.6257 125.957 26.6257C127.119 26.6257 128.154 26.8793 129.063 27.3865C129.993 27.8936 130.732 28.6121 131.282 29.5419C131.831 30.4506 132.117 31.5284 132.138 32.7751C132.138 32.8174 132.138 32.9336 132.138 33.1238C132.138 33.314 132.138 33.4725 132.138 33.5993H122.66C122.66 34.8038 122.956 35.7336 123.548 36.3887C124.139 37.0227 124.953 37.3397 125.988 37.3397C126.791 37.3397 127.457 37.1389 127.985 36.7374C128.535 36.3359 128.862 35.8076 128.968 35.1525H132.106C131.958 36.5261 131.366 37.6884 130.331 38.6393C129.295 39.5691 127.869 40.034 126.052 40.034ZM122.755 32.1412H128.905C128.883 31.9933 128.831 31.7608 128.746 31.4438C128.683 31.1268 128.545 30.7993 128.334 30.4612C128.144 30.1231 127.848 29.8378 127.446 29.6053C127.045 29.3729 126.527 29.2567 125.893 29.2567C125.048 29.2567 124.403 29.4363 123.96 29.7955C123.537 30.1336 123.231 30.5351 123.04 31.0001C122.871 31.4438 122.776 31.8242 122.755 32.1412Z" fill="black"/>
<path d="M135.59 39.717V21.871H138.76V39.717H135.59Z" fill="black"/>
<path d="M167.259 39.7804C165.779 39.1676 164.342 38.4174 162.948 37.5299C162.039 38.354 161.014 38.9774 159.873 39.4001C158.753 39.8016 157.612 40.0023 156.449 40.0023C155.287 40.0023 154.22 39.8016 153.248 39.4001C152.276 38.9985 151.483 38.4068 150.871 37.625C150.279 36.8431 149.983 35.8604 149.983 34.677C149.983 33.8106 150.152 33.0921 150.49 32.5216C150.849 31.9299 151.262 31.4544 151.726 31.0951C152.212 30.7148 152.667 30.4295 153.089 30.2393C153.533 30.028 153.85 29.8801 154.04 29.7955C153.935 29.6265 153.723 29.3623 153.406 29.0031C153.089 28.6227 152.794 28.1472 152.519 27.5767C152.244 27.0061 152.107 26.3616 152.107 25.6431C152.107 24.7555 152.339 24.0159 152.804 23.4242C153.29 22.8325 153.903 22.3887 154.643 22.0929C155.403 21.7759 156.196 21.6174 157.02 21.6174C157.865 21.5963 158.658 21.7231 159.397 21.9978C160.158 22.2725 160.771 22.7057 161.236 23.2974C161.722 23.8891 161.965 24.6287 161.965 25.5163C161.965 26.2559 161.785 26.911 161.426 27.4816C161.067 28.0521 160.644 28.5382 160.158 28.9397C159.672 29.3201 159.228 29.6159 158.827 29.8272C158.425 30.0385 158.182 30.1653 158.098 30.2076C158.33 30.5034 158.785 30.9789 159.461 31.634C160.158 32.2891 160.951 32.9759 161.838 33.6944C162.007 33.4619 162.187 33.1133 162.377 32.6484C162.588 32.1623 162.694 31.6551 162.694 31.1268C162.694 30.5985 162.483 30.1336 162.06 29.7321L164.754 27.957C164.881 28.105 165.05 28.4325 165.262 28.9397C165.494 29.4257 165.674 30.028 165.8 30.7465C165.927 31.4438 165.917 32.2046 165.769 33.0287C165.642 33.8529 165.293 34.6665 164.723 35.4695C165.251 35.8076 165.79 36.1351 166.339 36.4521C166.91 36.748 167.607 37.065 168.431 37.4031L167.259 39.7804ZM156.323 28.7178C156.597 28.5699 156.957 28.3691 157.4 28.1155C157.844 27.8408 158.246 27.5238 158.605 27.1646C158.964 26.8053 159.165 26.4144 159.207 25.9918C159.249 25.5057 159.133 25.1148 158.859 24.8189C158.584 24.5019 158.235 24.2906 157.812 24.185C157.39 24.0582 156.957 24.0476 156.513 24.1533C156.09 24.2378 155.731 24.428 155.435 24.7238C155.139 25.0197 155.002 25.4318 155.023 25.9601C155.044 26.7842 155.477 27.7035 156.323 28.7178ZM160.443 35.7231C159.556 35.0468 158.721 34.3389 157.939 33.5993C157.157 32.8385 156.439 32.0672 155.784 31.2853C155.129 31.6235 154.526 32.0144 153.977 32.4582C153.449 32.8808 153.185 33.4936 153.185 34.2967C153.185 35.0785 153.438 35.7125 153.945 36.1985C154.474 36.6846 155.129 37.0016 155.911 37.1495C156.692 37.2763 157.496 37.2234 158.32 36.991C159.144 36.7585 159.852 36.3359 160.443 35.7231Z" fill="black"/>
<path d="M186.697 40.034C185.027 40.034 183.517 39.6959 182.164 39.0197C180.812 38.3223 179.734 37.2974 178.931 35.945C178.149 34.5925 177.758 32.9019 177.758 30.8733C177.779 28.8868 178.181 27.1963 178.963 25.8016C179.744 24.4068 180.812 23.3502 182.164 22.6318C183.517 21.9133 185.059 21.554 186.792 21.554C188.44 21.554 189.846 21.8499 191.008 22.4416C192.17 23.0333 193.1 23.8363 193.797 24.8506C194.516 25.865 194.981 27.0061 195.192 28.274H191.864C191.716 27.3442 191.367 26.6151 190.818 26.0868C190.289 25.5374 189.666 25.157 188.947 24.9457C188.229 24.7133 187.51 24.597 186.792 24.597C184.911 24.597 183.464 25.1253 182.449 26.1819C181.456 27.2385 180.96 28.7284 180.96 30.6514C180.96 32.7012 181.446 34.2755 182.418 35.3744C183.411 36.4733 184.848 37.0227 186.729 37.0227C187.51 37.0227 188.271 36.9065 189.011 36.674C189.75 36.4204 190.384 36.0189 190.913 35.4695C191.441 34.8989 191.779 34.1382 191.927 33.1872H195.287C195.055 34.4974 194.579 35.6702 193.861 36.7057C193.163 37.7201 192.212 38.5336 191.008 39.1465C189.824 39.7382 188.387 40.034 186.697 40.034Z" fill="black"/>
<path d="M204.18 40.034C202.701 40.034 201.475 39.7487 200.503 39.1782C199.531 38.6076 198.802 37.8257 198.316 36.8325C197.83 35.8182 197.587 34.6665 197.587 33.3774C197.566 31.4333 198.105 29.8378 199.204 28.591C200.324 27.3231 201.983 26.6891 204.18 26.6891C206.315 26.6891 207.931 27.3019 209.03 28.5276C210.15 29.7533 210.71 31.3699 210.71 33.3774C210.71 34.6242 210.478 35.7548 210.013 36.7691C209.548 37.7835 208.829 38.5865 207.857 39.1782C206.885 39.7487 205.66 40.034 204.18 40.034ZM204.18 37.308C205.11 37.308 205.818 37.1072 206.304 36.7057C206.811 36.3042 207.149 35.797 207.319 35.1842C207.488 34.5502 207.572 33.9163 207.572 33.2823C207.572 32.6272 207.488 31.9827 207.319 31.3487C207.149 30.7148 206.811 30.197 206.304 29.7955C205.818 29.394 205.11 29.1933 204.18 29.1933C203.229 29.1933 202.5 29.4046 201.993 29.8272C201.507 30.2287 201.169 30.7465 200.979 31.3804C200.81 31.9933 200.725 32.6272 200.725 33.2823C200.725 33.9163 200.81 34.5502 200.979 35.1842C201.169 35.797 201.507 36.3042 201.993 36.7057C202.5 37.1072 203.229 37.308 204.18 37.308Z" fill="black"/>
<path d="M215.486 39.717C214.705 39.717 214.187 39.5268 213.933 39.1465C213.68 38.7661 213.553 38.3012 213.553 37.7518C213.553 37.2446 213.68 36.8008 213.933 36.4204C214.208 36.0401 214.726 35.8499 215.486 35.8499C216.205 35.8499 216.691 36.0401 216.945 36.4204C217.219 36.8008 217.357 37.2446 217.357 37.7518C217.357 38.3012 217.219 38.7661 216.945 39.1465C216.691 39.5268 216.205 39.717 215.486 39.717Z" fill="black"/>
<rect x="26.1174" y="13.4193" width="19.3711" height="33.5765" fill="#2DC846" stroke="black" stroke-width="1.2914"/>
<rect x="32.5742" y="13.4193" width="19.3711" height="25.8281" fill="#5AA6FF" stroke="black" stroke-width="1.2914"/>
<rect x="32.5742" y="26.3333" width="12.914" height="12.914" fill="#FF767E" stroke="black" stroke-width="1.2914"/>
</svg>
