<svg width="68" height="16" viewBox="0 0 68 16" fill="none" xmlns="http://www.w3.org/2000/svg">
<path d="M6.72763 12.3466C8.75321 11.3462 9.71026 8.59128 8.86527 6.19324C8.02027 3.7952 5.69321 2.66217 3.66763 3.66254C1.64205 4.66292 0.685005 7.41787 1.53 9.81591C2.375 12.214 4.70205 13.347 6.72763 12.3466Z" fill="#0063F9" fill-opacity="0.3"/>
<path d="M48.524 0C44.7929 0 41.7666 3.58279 41.7666 8C41.7666 12.4172 44.7929 16 48.524 16C52.2552 16 55.2815 12.4172 55.2815 8C55.2815 3.58279 52.2552 0 48.524 0ZM48.524 11.8185C46.7441 11.8185 45.3026 10.112 45.3026 8.00471C45.3026 5.89747 46.7441 4.19093 48.524 4.19093C50.304 4.19093 51.7455 5.89747 51.7455 8.00471C51.7455 10.112 50.304 11.8185 48.524 11.8185Z" fill="#0063F9" fill-opacity="0.3"/>
<path d="M64.0778 3.35657C61.9116 3.35657 60.1555 5.43553 60.1555 8.00005C60.1555 10.5646 61.9116 12.6435 64.0778 12.6435C66.244 12.6435 68.0001 10.5646 68.0001 8.00005C68.0001 5.43553 66.244 3.35657 64.0778 3.35657ZM64.0778 9.25403C63.4924 9.25403 63.0186 8.69304 63.0186 8.00005C63.0186 7.30707 63.4924 6.74608 64.0778 6.74608C64.6631 6.74608 65.137 7.30707 65.137 8.00005C65.137 8.69304 64.6631 9.25403 64.0778 9.25403Z" fill="#114A82"/>
<path d="M33.5079 3.88452C31.5846 3.88452 30.0276 5.72777 30.0276 8.00473C30.0276 10.2817 31.5846 12.1249 33.5079 12.1249C35.4312 12.1249 36.9881 10.2817 36.9881 8.00473C36.9881 5.72777 35.4312 3.88452 33.5079 3.88452ZM33.5079 9.96584C32.592 9.96584 31.8474 9.08429 31.8474 8.00002C31.8474 6.91575 32.592 6.0342 33.5079 6.0342C34.4237 6.0342 35.1684 6.91575 35.1684 8.00002C35.1684 9.08429 34.4237 9.96584 33.5079 9.96584Z" fill="#0559DA" fill-opacity="0.5"/>
</svg>
