<svg width="468" height="474" viewBox="0 0 468 474" fill="none" xmlns="http://www.w3.org/2000/svg">
<path d="M331.704 48.0658C313.074 29.4358 290.627 16.949 266.881 10.6054C228.357 0.314097 186.412 6.19072 151.795 28.2352M86.2539 129.383C82.7775 153.232 85.2622 177.781 93.7079 200.627M199.29 291.885C235.759 299.609 274.634 293.134 307.069 272.46M352.646 226.201C363.784 208.136 370.58 188.152 373.036 167.745" stroke="#D9E5FF" stroke-width="10.9606" stroke-linecap="round"/>
<circle cx="230.243" cy="126.643" r="22.8345" stroke="#D0D4E5" stroke-width="12.7873"/>
<path d="M189.141 195.146V195.146C189.141 180.013 201.409 167.745 216.542 167.745H243.943C259.077 167.745 271.345 180.013 271.345 195.146V195.146" stroke="#D0D4E5" stroke-width="12.7873" stroke-linecap="round"/>
<circle cx="130.28" cy="226.021" r="23.5674" stroke="#0559DA" stroke-opacity="0.5" stroke-width="10.9631"/>
<path d="M87.8594 296.723V296.723C87.8594 281.104 100.521 268.442 116.14 268.442H144.421C160.04 268.442 172.702 281.104 172.702 296.723V296.723" stroke="#0559DA" stroke-opacity="0.5" stroke-width="10.9631" stroke-linecap="round"/>
<circle cx="104.704" cy="36.0378" r="23.5674" stroke="#0559DA" stroke-opacity="0.5" stroke-width="10.9631"/>
<path d="M62.2832 106.74V106.74C62.2832 91.1209 74.945 78.4591 90.5641 78.4591H118.845C134.464 78.4591 147.126 91.1209 147.126 106.74V106.74" stroke="#0559DA" stroke-opacity="0.5" stroke-width="10.9631" stroke-linecap="round"/>
<circle cx="371.411" cy="90.8405" r="23.5674" stroke="#0559DA" stroke-opacity="0.5" stroke-width="10.9631"/>
<path d="M328.99 161.543V161.543C328.99 145.924 341.652 133.262 357.271 133.262H385.552C401.171 133.262 413.833 145.924 413.833 161.543V161.543" stroke="#0559DA" stroke-opacity="0.5" stroke-width="10.9631" stroke-linecap="round"/>
<path fill-rule="evenodd" clip-rule="evenodd" d="M308.296 72.4145C265.223 29.3424 195.39 29.3424 152.318 72.4145C109.246 115.487 109.246 185.32 152.318 228.392C192.237 268.311 255.143 271.234 298.428 237.159L359.176 297.907C364.406 303.137 372.885 303.137 378.114 297.907C383.344 292.678 383.344 284.199 378.114 278.97L317.329 218.184C351.121 174.911 348.11 112.229 308.296 72.4145ZM170.402 90.4985C203.486 57.4139 257.127 57.4139 290.212 90.4985C323.296 123.583 323.296 177.224 290.212 210.308C257.127 243.393 203.486 243.393 170.402 210.308C137.317 177.224 137.317 123.583 170.402 90.4985Z" fill="#0063F9"/>
<rect x="213.289" y="113.304" width="77.1451" height="19.2863" rx="3.65352" transform="rotate(45 213.289 113.304)" fill="#0063F9"/>
<rect width="77.1451" height="19.2863" rx="3.65352" transform="matrix(-0.707107 0.707107 0.707107 0.707107 254.203 113.304)" fill="#0063F9"/>
</svg>
