<svg width="248" height="227" viewBox="0 0 248 227" fill="none" xmlns="http://www.w3.org/2000/svg">
<path d="M161.429 136.383C161.126 135.437 160.677 134.539 160.246 133.642C158.827 130.829 157.18 128.124 155.472 125.457C153.876 122.964 152.234 120.488 150.305 118.194C147.274 114.631 143.657 111.491 139.753 108.659C138.547 107.792 137.376 106.889 136.091 106.105C135.485 105.717 134.88 105.33 134.274 104.942L132.083 103.765C130.575 102.921 128.947 102.241 127.368 101.491C125.705 100.865 124.077 100.176 122.369 99.6265C120.944 99.1612 119.548 98.6403 118.076 98.2692C116.557 97.8626 115.06 97.409 113.492 97.1142C111.939 96.7822 110.388 96.4471 108.793 96.2305C108.117 96.1263 107.442 96.021 106.766 95.9157L103.847 95.6628C100.133 95.3735 96.3817 95.1614 92.5799 95.5122C90.6518 95.6874 88.7191 95.8285 86.793 96.1147C85.893 96.272 84.9664 96.4289 84.1177 96.7919C83.3605 97.1266 82.7578 97.7059 82.2968 98.3205C83.4858 98.3214 84.6432 97.9168 85.8023 97.6222C87.4558 97.2666 89.1303 97.1519 90.794 96.9893C92.611 96.7989 95.4426 96.6151 96.581 96.6436C99.885 96.651 103.14 96.9509 106.389 97.2305C107.697 97.4283 109.004 97.6362 110.311 97.8367C111.669 98.12 113.027 98.406 114.384 98.6909C115.789 99.0736 117.195 99.4531 118.598 99.8388L122.808 101.244C124.022 101.709 125.233 102.178 126.446 102.644C127.705 103.189 128.925 103.792 130.169 104.358C131.191 104.908 132.216 105.455 133.236 106.007C134.935 107.08 136.627 108.159 138.206 109.357C142.349 112.344 145.623 115.14 148.744 118.694C150.827 121.147 152.594 123.8 154.302 126.477C155.894 128.959 157.665 131.926 158.739 134.066C159.231 135.008 159.654 135.981 160.118 136.935C160.538 137.55 160.703 137.672 161.309 138.177C161.512 137.396 161.558 137.139 161.427 136.38L161.429 136.383Z" fill="#0063F9"/>
<g clip-path="url(#clip0_587_2727)">
<path d="M162.349 137.419C162.636 136.209 162.893 134.731 163.079 133.927C163.233 133.223 163.379 132.518 163.524 131.813C163.56 131.542 163.685 131.266 163.651 130.999C163.47 130.331 162.447 130.618 162.455 131.185C162.454 131.192 162.454 131.198 162.453 131.205C162.373 131.601 162.288 131.997 162.209 132.392C161.941 133.668 161.592 135.3 161.267 136.929C161.246 136.93 161.225 136.93 161.203 136.931C160.771 136.936 160.343 136.906 159.916 136.875C158.695 136.799 156.522 136.483 154.825 136.295C154.124 136.221 153.905 136.208 153.545 136.187C153.42 136.191 153.293 136.179 153.168 136.185C153.073 136.18 152.975 136.198 152.888 136.243C152.664 136.353 152.564 136.619 152.677 136.802C152.738 136.892 152.825 136.963 152.948 136.985C152.945 136.985 152.94 136.983 152.932 136.98C152.981 136.994 153.033 137.005 153.083 137.019C153.351 137.094 153.627 137.145 153.905 137.194C155.04 137.381 156.189 137.529 157.337 137.677C158.295 137.804 159.262 137.896 160.236 137.959C160.927 137.971 161.998 138.171 162.347 137.418L162.349 137.419Z" fill="#0063F9"/>
</g>
<g clip-path="url(#clip1_587_2727)">
<path d="M82.4014 98.6458C83.6253 99.1099 85.1593 99.5988 85.9743 99.9034C86.6924 100.163 87.4149 100.415 88.1373 100.667C88.4225 100.747 88.6785 100.903 88.9877 100.923C89.8001 100.896 89.8936 99.9879 89.2622 99.8898C89.255 99.8877 89.248 99.8865 89.2408 99.8845C88.8344 99.7442 88.4305 99.5995 88.0242 99.4602C86.7193 98.9999 85.0511 98.4063 83.3777 97.8328C83.3857 97.8148 83.3937 97.7969 83.4017 97.779C83.5694 97.4166 83.7753 97.0643 83.9802 96.7131C84.555 95.7067 85.7783 93.9498 86.6677 92.5656C87.0315 91.994 87.1342 91.8132 87.3015 91.5161C87.3478 91.4108 87.4114 91.3071 87.4553 91.2014C87.4987 91.1233 87.518 91.0375 87.503 90.9569C87.4711 90.749 87.2172 90.6165 86.9694 90.6763C86.8453 90.711 86.7315 90.7707 86.6578 90.8692C86.6586 90.8671 86.6635 90.8631 86.6703 90.8568C86.6343 90.8954 86.601 90.9363 86.5652 90.9758C86.3749 91.1857 86.2072 91.4072 86.0419 91.6301C85.3786 92.5447 84.7537 93.4769 84.1287 94.409C83.6034 95.1865 83.1124 95.9778 82.6517 96.7799C82.3613 97.3551 81.709 98.2133 82.4023 98.6446L82.4014 98.6458Z" fill="#0063F9"/>
</g>
<defs>
<clipPath id="clip0_587_2727">
<rect width="5.9567" height="12.441" fill="white" transform="matrix(0.513657 0.857996 -0.88753 0.46075 163.329 130.417)"/>
</clipPath>
<clipPath id="clip1_587_2727">
<rect width="7.07462" height="10.4668" fill="white" transform="matrix(-0.973756 0.227595 -0.182751 -0.983159 89.7617 100.763)"/>
</clipPath>
</defs>
</svg>
