<svg width="103" height="99" viewBox="0 0 103 99" fill="none" xmlns="http://www.w3.org/2000/svg">
<path d="M9.53818 4.60405C8.47696 4.60405 7.60596 3.76395 7.60596 2.71871C7.60596 1.68324 8.46694 0.833374 9.53818 0.833374C10.6094 0.833374 11.4704 1.67347 11.4704 2.71871C11.4704 3.75418 10.5994 4.60405 9.53818 4.60405Z" fill="#0B315E"/>
<path d="M27.6993 4.60405C26.6381 4.60405 25.7671 3.76395 25.7671 2.71871C25.7671 1.68324 26.6281 0.833374 27.6993 0.833374C28.7605 0.833374 29.6315 1.67347 29.6315 2.71871C29.6215 3.75418 28.7605 4.60405 27.6993 4.60405Z" fill="#0B315E"/>
<path d="M45.8497 4.60405C44.7885 4.60405 43.9175 3.76395 43.9175 2.71871C43.9175 1.68324 44.7785 0.833374 45.8497 0.833374C46.9109 0.833374 47.7819 1.67347 47.7819 2.71871C47.7819 3.75418 46.9209 4.60405 45.8497 4.60405Z" fill="#0B315E"/>
<path d="M64.0114 4.60405C62.9502 4.60405 62.0791 3.76395 62.0791 2.71871C62.0791 1.68324 62.9402 0.833374 64.0114 0.833374C65.0726 0.833374 65.9436 1.67347 65.9436 2.71871C65.9436 3.75418 65.0726 4.60405 64.0114 4.60405Z" fill="#0B315E"/>
<path d="M82.1618 4.60405C81.1006 4.60405 80.2295 3.76395 80.2295 2.71871C80.2295 1.68324 81.0905 0.833374 82.1618 0.833374C83.223 0.833374 84.094 1.67347 84.094 2.71871C84.094 3.75418 83.233 4.60405 82.1618 4.60405Z" fill="#0B315E"/>
<path d="M100.322 4.60405C99.2611 4.60405 98.3901 3.76395 98.3901 2.71871C98.3901 1.68324 99.2511 0.833374 100.322 0.833374C101.394 0.833374 102.255 1.67347 102.255 2.71871C102.255 3.75418 101.384 4.60405 100.322 4.60405Z" fill="#0B315E"/>
<path d="M9.53818 20.7613C8.47696 20.7613 7.60596 19.9212 7.60596 18.8759C7.60596 17.8405 8.46694 16.9906 9.53818 16.9906C10.6094 16.9906 11.4704 17.8307 11.4704 18.8759C11.4704 19.9114 10.5994 20.7613 9.53818 20.7613Z" fill="#0B315E"/>
<path d="M27.6993 20.7613C26.6381 20.7613 25.7671 19.9212 25.7671 18.8759C25.7671 17.8405 26.6281 16.9906 27.6993 16.9906C28.7605 16.9906 29.6315 17.8307 29.6315 18.8759C29.6215 19.9114 28.7605 20.7613 27.6993 20.7613Z" fill="#0B315E"/>
<path d="M45.8497 20.7613C44.7885 20.7613 43.9175 19.9212 43.9175 18.8759C43.9175 17.8405 44.7785 16.9906 45.8497 16.9906C46.9109 16.9906 47.7819 17.8307 47.7819 18.8759C47.7819 19.9114 46.9209 20.7613 45.8497 20.7613Z" fill="#0B315E"/>
<path d="M64.0114 20.7613C62.9502 20.7613 62.0791 19.9212 62.0791 18.8759C62.0791 17.8405 62.9402 16.9906 64.0114 16.9906C65.0726 16.9906 65.9436 17.8307 65.9436 18.8759C65.9436 19.9114 65.0726 20.7613 64.0114 20.7613Z" fill="#0B315E"/>
<path d="M82.1618 20.7613C81.1006 20.7613 80.2295 19.9212 80.2295 18.8759C80.2295 17.8405 81.0905 16.9906 82.1618 16.9906C83.223 16.9906 84.094 17.8307 84.094 18.8759C84.094 19.9114 83.233 20.7613 82.1618 20.7613Z" fill="#0B315E"/>
<path d="M100.322 20.7613C99.2611 20.7613 98.3901 19.9212 98.3901 18.8759C98.3901 17.8405 99.2511 16.9906 100.322 16.9906C101.394 16.9906 102.255 17.8307 102.255 18.8759C102.255 19.9114 101.384 20.7613 100.322 20.7613Z" fill="#0B315E"/>
<path d="M9.53818 36.9087C8.47696 36.9087 7.60596 36.0686 7.60596 35.0234C7.60596 33.9879 8.46694 33.1381 9.53818 33.1381C10.6094 33.1381 11.4704 33.9782 11.4704 35.0234C11.4704 36.0686 10.5994 36.9087 9.53818 36.9087Z" fill="#0B315E"/>
<path d="M27.6993 36.9087C26.6381 36.9087 25.7671 36.0686 25.7671 35.0234C25.7671 33.9879 26.6281 33.1381 27.6993 33.1381C28.7605 33.1381 29.6315 33.9782 29.6315 35.0234C29.6215 36.0686 28.7605 36.9087 27.6993 36.9087Z" fill="#0B315E"/>
<path d="M45.8497 36.9087C44.7885 36.9087 43.9175 36.0686 43.9175 35.0234C43.9175 33.9879 44.7785 33.1381 45.8497 33.1381C46.9109 33.1381 47.7819 33.9782 47.7819 35.0234C47.7819 36.0686 46.9209 36.9087 45.8497 36.9087Z" fill="#0B315E"/>
<path d="M64.0114 36.9087C62.9502 36.9087 62.0791 36.0686 62.0791 35.0234C62.0791 33.9879 62.9402 33.1381 64.0114 33.1381C65.0726 33.1381 65.9436 33.9782 65.9436 35.0234C65.9436 36.0686 65.0726 36.9087 64.0114 36.9087Z" fill="#0B315E"/>
<path d="M82.1618 36.9087C81.1006 36.9087 80.2295 36.0686 80.2295 35.0234C80.2295 33.9879 81.0905 33.1381 82.1618 33.1381C83.223 33.1381 84.094 33.9782 84.094 35.0234C84.094 36.0686 83.233 36.9087 82.1618 36.9087Z" fill="#0B315E"/>
<path d="M100.322 36.9087C99.2611 36.9087 98.3901 36.0686 98.3901 35.0234C98.3901 33.9879 99.2511 33.1381 100.322 33.1381C101.394 33.1381 102.255 33.9782 102.255 35.0234C102.255 36.0686 101.384 36.9087 100.322 36.9087Z" fill="#0B315E"/>
<path d="M9.53818 53.0658C8.47696 53.0658 7.60596 52.2257 7.60596 51.1805C7.60596 50.145 8.46694 49.2952 9.53818 49.2952C10.6094 49.2952 11.4704 50.1353 11.4704 51.1805C11.4704 52.216 10.5994 53.0658 9.53818 53.0658Z" fill="#0B315E"/>
<path d="M27.6993 53.0658C26.6381 53.0658 25.7671 52.2257 25.7671 51.1805C25.7671 50.145 26.6281 49.2952 27.6993 49.2952C28.7605 49.2952 29.6315 50.1353 29.6315 51.1805C29.6215 52.216 28.7605 53.0658 27.6993 53.0658Z" fill="#0B315E"/>
<path d="M45.8497 53.0658C44.7885 53.0658 43.9175 52.2257 43.9175 51.1805C43.9175 50.145 44.7785 49.2952 45.8497 49.2952C46.9109 49.2952 47.7819 50.1353 47.7819 51.1805C47.7819 52.216 46.9209 53.0658 45.8497 53.0658Z" fill="#0B315E"/>
<path d="M64.0114 53.0658C62.9502 53.0658 62.0791 52.2257 62.0791 51.1805C62.0791 50.145 62.9402 49.2952 64.0114 49.2952C65.0726 49.2952 65.9436 50.1353 65.9436 51.1805C65.9436 52.216 65.0726 53.0658 64.0114 53.0658Z" fill="#0B315E"/>
<path d="M82.1618 53.0658C81.1006 53.0658 80.2295 52.2257 80.2295 51.1805C80.2295 50.145 81.0905 49.2952 82.1618 49.2952C83.223 49.2952 84.094 50.1353 84.094 51.1805C84.094 52.216 83.233 53.0658 82.1618 53.0658Z" fill="#0B315E"/>
<path d="M100.322 53.0658C99.2611 53.0658 98.3901 52.2257 98.3901 51.1805C98.3901 50.145 99.2511 49.2952 100.322 49.2952C101.394 49.2952 102.255 50.1353 102.255 51.1805C102.255 52.216 101.384 53.0658 100.322 53.0658Z" fill="#0B315E"/>
<path d="M9.53818 69.2231C8.47696 69.2231 7.60596 68.383 7.60596 67.3377C7.60596 66.3023 8.46694 65.4524 9.53818 65.4524C10.6094 65.4524 11.4704 66.2925 11.4704 67.3377C11.4704 68.3732 10.5994 69.2231 9.53818 69.2231Z" fill="#0B315E"/>
<path d="M27.6993 69.2231C26.6381 69.2231 25.7671 68.383 25.7671 67.3377C25.7671 66.3023 26.6281 65.4524 27.6993 65.4524C28.7605 65.4524 29.6315 66.2925 29.6315 67.3377C29.6215 68.3732 28.7605 69.2231 27.6993 69.2231Z" fill="#0B315E"/>
<path d="M45.8497 69.2231C44.7885 69.2231 43.9175 68.383 43.9175 67.3377C43.9175 66.3023 44.7785 65.4524 45.8497 65.4524C46.9109 65.4524 47.7819 66.2925 47.7819 67.3377C47.7819 68.3732 46.9209 69.2231 45.8497 69.2231Z" fill="#0B315E"/>
<path d="M64.0114 69.2231C62.9502 69.2231 62.0791 68.383 62.0791 67.3377C62.0791 66.3023 62.9402 65.4524 64.0114 65.4524C65.0726 65.4524 65.9436 66.2925 65.9436 67.3377C65.9436 68.3732 65.0726 69.2231 64.0114 69.2231Z" fill="#0B315E"/>
<path d="M82.1618 69.2231C81.1006 69.2231 80.2295 68.383 80.2295 67.3377C80.2295 66.3023 81.0905 65.4524 82.1618 65.4524C83.223 65.4524 84.094 66.2925 84.094 67.3377C84.094 68.3732 83.233 69.2231 82.1618 69.2231Z" fill="#0B315E"/>
<path d="M100.322 69.2231C99.2611 69.2231 98.3901 68.383 98.3901 67.3377C98.3901 66.3023 99.2511 65.4524 100.322 65.4524C101.394 65.4524 102.255 66.2925 102.255 67.3377C102.255 68.3732 101.384 69.2231 100.322 69.2231Z" fill="#0B315E"/>
<path d="M9.53818 85.3705C8.47696 85.3705 7.60596 84.5304 7.60596 83.4852C7.60596 82.4497 8.46694 81.5999 9.53818 81.5999C10.6094 81.5999 11.4704 82.4399 11.4704 83.4852C11.4704 84.5304 10.5994 85.3705 9.53818 85.3705Z" fill="#0B315E"/>
<path d="M27.6993 85.3706C26.6381 85.3706 25.7671 84.5305 25.7671 83.4853C25.7671 82.4498 26.6281 81.6 27.6993 81.6C28.7605 81.6 29.6315 82.4401 29.6315 83.4853C29.6215 84.5305 28.7605 85.3706 27.6993 85.3706Z" fill="#0B315E"/>
<path d="M45.8497 85.3706C44.7885 85.3706 43.9175 84.5305 43.9175 83.4853C43.9175 82.4498 44.7785 81.6 45.8497 81.6C46.9109 81.6 47.7819 82.4401 47.7819 83.4853C47.7819 84.5305 46.9209 85.3706 45.8497 85.3706Z" fill="#0B315E"/>
<path d="M64.0114 85.3706C62.9502 85.3706 62.0791 84.5305 62.0791 83.4853C62.0791 82.4498 62.9402 81.6 64.0114 81.6C65.0726 81.6 65.9436 82.4401 65.9436 83.4853C65.9436 84.5305 65.0726 85.3706 64.0114 85.3706Z" fill="#0B315E"/>
<path d="M82.1618 85.3706C81.1006 85.3706 80.2295 84.5305 80.2295 83.4853C80.2295 82.4498 81.0905 81.6 82.1618 81.6C83.223 81.6 84.094 82.4401 84.094 83.4853C84.094 84.5305 83.233 85.3706 82.1618 85.3706Z" fill="#0B315E"/>
<path d="M100.322 85.3706C99.2611 85.3706 98.3901 84.5305 98.3901 83.4853C98.3901 82.4498 99.2511 81.6 100.322 81.6C101.394 81.6 102.255 82.4401 102.255 83.4853C102.255 84.5305 101.384 85.3706 100.322 85.3706Z" fill="#0B315E"/>
<path d="M86.0161 98.0403L0.867676 14.9585H86.0161V98.0403Z" fill="#0063F9"/>
</svg>
